<?xml version="1.0" encoding="utf-8"?>
<!-- Generator: Adobe Illustrator 24.2.1, SVG Export Plug-In . SVG Version: 6.00 Build 0)  -->
<svg version="1.1" id="レイヤー_1" xmlns="http://www.w3.org/2000/svg" xmlns:xlink="http://www.w3.org/1999/xlink" x="0px"
	 y="0px" viewBox="0 0 200 200" style="enable-background:new 0 0 200 200;" xml:space="preserve">
<style type="text/css">
	.st0{fill:#F3D83F;}
	.st1{fill:#005370;}
	.st2{clip-path:url(#SVGID_2_);}
	.st3{fill:#5089AA;}
	.st4{clip-path:url(#SVGID_4_);}
	.st5{clip-path:url(#SVGID_6_);}
	.st6{clip-path:url(#SVGID_8_);}
	.st7{clip-path:url(#SVGID_10_);}
	.st8{clip-path:url(#SVGID_12_);}
	.st9{clip-path:url(#SVGID_14_);}
	.st10{clip-path:url(#SVGID_16_);}
</style>
<g>
	<rect y="0" class="st0" width="200" height="200"/>
	<g>
		<g>
			<g>
				<path class="st1" d="M39.91,71h9.42l-1,4.53h-3.59l-5.3,25.13h3.59l-1,4.53h-3.59l-1.77,8.47h3.59l-1,4.53h-9.41L39.91,71z"/>
				<path class="st1" d="M52.03,117.07c-0.71,0.76-2.24,1.29-3.24,1.29c-3.18,0-3.53-1.77-2.82-5l6.77-31.83
					c0.71-3.24,1.77-5.06,4.94-5.06c1,0,2.29,0.53,2.71,1.29L61.74,71h5.59l-10,47.19h-5.59L52.03,117.07z M59.09,81.06
					c-0.53,0-0.76,0.41-0.82,0.82l-6.65,31.07c-0.06,0.35-0.06,0.82,0.41,0.82c0.59,0,0.77-0.41,0.82-0.82l6.59-31.01
					C59.56,81.47,59.5,81.06,59.09,81.06z"/>
				<path class="st1" d="M70.62,117.13c-0.71,0.76-2.18,1.29-3.18,1.29c-3.18,0-3.53-1.88-2.88-5.12l7.77-36.48h5.59l-7.71,36.19
					c-0.06,0.35-0.06,0.82,0.41,0.82c0.59,0,0.77-0.41,0.82-0.82l7.65-36.19h5.65l-8.77,41.42h-5.65L70.62,117.13z"/>
				<path class="st1" d="M88.42,118.48c-3.71,0-5.77-1.88-5-5.53l6.59-30.89c0.88-4.24,3.65-5.71,7.36-5.71
					c3.71,0,5.88,1.88,5.06,5.53l-3.12,14.89h-5.65l3.24-15.3c0.12-0.47-0.12-0.71-0.47-0.71c-0.41,0-0.59,0.24-0.71,0.71
					l-6.77,31.89c-0.12,0.41,0.06,0.59,0.41,0.59c0.47,0,0.65-0.24,0.77-0.59l1.71-8.06h5.65l-1.65,7.47
					C94.89,117.01,92.13,118.48,88.42,118.48z"/>
				<path class="st1" d="M106.9,117.01c-0.71,0.76-2.24,1.29-3.24,1.29c-3.18,0-3.53-1.77-2.82-5l6.77-31.83
					c0.71-3.24,1.77-5.06,4.94-5.06c1,0,2.29,0.53,2.71,1.29l0.12-1h5.59l-8.77,41.42h-5.59L106.9,117.01z M113.96,81
					c-0.53,0-0.76,0.41-0.82,0.82l-6.65,31.07c-0.06,0.35-0.06,0.82,0.41,0.82c0.59,0,0.77-0.41,0.82-0.82l6.59-31.01
					C114.43,81.41,114.37,81,113.96,81z"/>
				<path class="st1" d="M123.79,118.48c-3.71,0-5.88-1.94-5.12-5.59l1.71-7.83h-1.88l0.94-4.47h1.88l6.24-29.6h5.59l-6.24,29.6
					h5.88l-0.94,4.47h-5.88l-1.82,8.41c-0.06,0.35,0.12,0.59,0.53,0.59c0.41,0,0.65-0.24,0.71-0.59l1-4.59h5.65l-0.82,3.88
					C130.32,117.01,127.49,118.48,123.79,118.48z"/>
				<path class="st1" d="M140.2,118.48c-3.71,0-5.77-1.88-5-5.53l6.59-30.89c0.88-4.24,3.65-5.71,7.36-5.71
					c3.71,0,5.83,2.06,5.06,5.71l-4.88,23.01h-6.83l-1.77,8.3c-0.12,0.41,0.06,0.59,0.41,0.59c0.47,0,0.65-0.24,0.77-0.59l0.94-4.41
					h5.65l-0.82,3.88C146.74,117.07,143.91,118.48,140.2,118.48z M148.21,80.77c-0.41,0-0.59,0.24-0.71,0.71l-4.06,19.06h1.18
					l4.06-19.06C148.79,81,148.56,80.77,148.21,80.77z"/>
				<path class="st1" d="M156.68,118.48c-2.29,0-3.77-1.41-3.35-3.3c0.41-1.88,2.47-3.3,4.77-3.3c2.35,0,3.77,1.41,3.35,3.3
					C161.03,117.07,159.03,118.48,156.68,118.48z M156.27,110.13L163.74,71h6.41l-9.24,39.13H156.27z"/>
			</g>
			<g>
				<defs>
					<path id="SVGID_1_" d="M39.91,71h9.42l-1,4.53h-3.59l-5.3,25.13h3.59l-1,4.53h-3.59l-1.77,8.47h3.59l-1,4.53h-9.41L39.91,71z"
						/>
				</defs>
				<clipPath id="SVGID_2_">
					<use xlink:href="#SVGID_1_"  style="overflow:visible;"/>
				</clipPath>
				<g class="st2">
					<path class="st3" d="M40.47,71.68h9.42l-1,4.53h-3.59L40,101.34h3.59l-1,4.53H39l-1.77,8.47h3.59l-1,4.53H30.4L40.47,71.68z"/>
				</g>
			</g>
			<g>
				<defs>
					<path id="SVGID_3_" d="M52.03,117.07c-0.71,0.76-2.24,1.29-3.24,1.29c-3.18,0-3.53-1.77-2.82-5l6.77-31.83
						c0.71-3.24,1.77-5.06,4.94-5.06c1,0,2.29,0.53,2.71,1.29L61.74,71h5.59l-10,47.19h-5.59L52.03,117.07z M59.09,81.06
						c-0.53,0-0.76,0.41-0.82,0.82l-6.65,31.07c-0.06,0.35-0.06,0.82,0.41,0.82c0.59,0,0.77-0.41,0.82-0.82l6.59-31.01
						C59.56,81.47,59.5,81.06,59.09,81.06z"/>
				</defs>
				<clipPath id="SVGID_4_">
					<use xlink:href="#SVGID_3_"  style="overflow:visible;"/>
				</clipPath>
				<g class="st4">
					<path class="st3" d="M52.59,117.76c-0.71,0.76-2.24,1.29-3.24,1.29c-3.18,0-3.53-1.77-2.82-5l6.77-31.83
						c0.71-3.24,1.77-5.06,4.94-5.06c1,0,2.29,0.53,2.71,1.29l1.35-6.77h5.59l-10,47.19h-5.59L52.59,117.76z M59.65,81.75
						c-0.53,0-0.76,0.41-0.82,0.82l-6.65,31.07c-0.06,0.35-0.06,0.82,0.41,0.82c0.59,0,0.77-0.41,0.82-0.82L60,82.63
						C60.12,82.16,60.06,81.75,59.65,81.75z"/>
				</g>
			</g>
			<g>
				<defs>
					<path id="SVGID_5_" d="M70.62,117.13c-0.71,0.76-2.18,1.29-3.18,1.29c-3.18,0-3.53-1.88-2.88-5.12l7.77-36.48h5.59l-7.71,36.19
						c-0.06,0.35-0.06,0.82,0.41,0.82c0.59,0,0.77-0.41,0.82-0.82l7.65-36.19h5.65l-8.77,41.42h-5.65L70.62,117.13z"/>
				</defs>
				<clipPath id="SVGID_6_">
					<use xlink:href="#SVGID_5_"  style="overflow:visible;"/>
				</clipPath>
				<g class="st5">
					<path class="st3" d="M71.18,117.82c-0.71,0.76-2.18,1.29-3.18,1.29c-3.18,0-3.53-1.88-2.88-5.12l7.77-36.48h5.59l-7.71,36.19
						c-0.06,0.35-0.06,0.82,0.41,0.82c0.59,0,0.77-0.41,0.82-0.82l7.65-36.19h5.65l-8.77,41.42h-5.65L71.18,117.82z"/>
				</g>
			</g>
			<g>
				<defs>
					<path id="SVGID_7_" d="M88.42,118.42c-3.71,0-5.77-1.88-5-5.53L90.01,82c0.88-4.24,3.65-5.71,7.36-5.71
						c3.71,0,5.88,1.88,5.06,5.53l-3.12,14.89h-5.65l3.24-15.3c0.12-0.47-0.12-0.71-0.47-0.71c-0.41,0-0.59,0.24-0.71,0.71
						l-6.77,31.89c-0.12,0.41,0.06,0.59,0.41,0.59c0.47,0,0.65-0.24,0.77-0.59l1.71-8.06h5.65l-1.65,7.47
						C94.89,116.95,92.13,118.42,88.42,118.42z"/>
				</defs>
				<clipPath id="SVGID_8_">
					<use xlink:href="#SVGID_7_"  style="overflow:visible;"/>
				</clipPath>
				<g class="st6">
					<path class="st3" d="M88.98,119.11c-3.71,0-5.77-1.88-5-5.53l6.59-30.89c0.88-4.24,3.65-5.71,7.36-5.71
						c3.71,0,5.88,1.88,5.06,5.53L99.87,97.4h-5.65l3.24-15.3c0.12-0.47-0.12-0.71-0.47-0.71c-0.41,0-0.59,0.24-0.71,0.71
						l-6.77,31.89c-0.12,0.41,0.06,0.59,0.41,0.59c0.47,0,0.65-0.24,0.77-0.59l1.71-8.06h5.65l-1.65,7.47
						C95.45,117.64,92.69,119.11,88.98,119.11z"/>
				</g>
			</g>
			<g>
				<defs>
					<path id="SVGID_9_" d="M106.9,117.01c-0.71,0.76-2.24,1.29-3.24,1.29c-3.18,0-3.53-1.77-2.82-5l6.77-31.83
						c0.71-3.24,1.77-5.06,4.94-5.06c1,0,2.29,0.53,2.71,1.29l0.12-1h5.59l-8.77,41.42h-5.59L106.9,117.01z M113.96,81
						c-0.53,0-0.76,0.41-0.82,0.82l-6.65,31.07c-0.06,0.35-0.06,0.82,0.41,0.82c0.59,0,0.77-0.41,0.82-0.82l6.59-31.01
						C114.43,81.41,114.37,81,113.96,81z"/>
				</defs>
				<clipPath id="SVGID_10_">
					<use xlink:href="#SVGID_9_"  style="overflow:visible;"/>
				</clipPath>
				<g class="st7">
					<path class="st3" d="M107.46,117.7c-0.71,0.76-2.24,1.29-3.24,1.29c-3.18,0-3.53-1.77-2.82-5l6.77-31.83
						c0.71-3.24,1.77-5.06,4.94-5.06c1,0,2.29,0.53,2.71,1.29l0.12-1h5.59l-8.77,41.42h-5.59L107.46,117.7z M114.52,81.69
						c-0.53,0-0.76,0.41-0.82,0.82l-6.65,31.07c-0.06,0.35-0.06,0.82,0.41,0.82c0.59,0,0.77-0.41,0.82-0.82l6.59-31.01
						C114.99,82.1,114.93,81.69,114.52,81.69z"/>
				</g>
			</g>
			<g>
				<defs>
					<path id="SVGID_11_" d="M123.79,118.48c-3.71,0-5.88-1.94-5.12-5.59l1.71-7.83h-1.88l0.94-4.47h1.88l6.24-29.6h5.59l-6.24,29.6
						h5.88l-0.94,4.47h-5.88l-1.82,8.41c-0.06,0.35,0.12,0.59,0.53,0.59c0.41,0,0.65-0.24,0.71-0.59l1-4.59h5.65l-0.82,3.88
						C130.32,117.01,127.49,118.48,123.79,118.48z"/>
				</defs>
				<clipPath id="SVGID_12_">
					<use xlink:href="#SVGID_11_"  style="overflow:visible;"/>
				</clipPath>
				<g class="st8">
					<path class="st3" d="M124.34,119.17c-3.71,0-5.88-1.94-5.12-5.59l1.71-7.83h-1.88l0.94-4.47h1.88l6.24-29.6h5.59l-6.24,29.6
						h5.88l-0.94,4.47h-5.88l-1.82,8.41c-0.06,0.35,0.12,0.59,0.53,0.59s0.65-0.24,0.71-0.59l1-4.59h5.65l-0.82,3.88
						C130.88,117.7,128.05,119.17,124.34,119.17z"/>
				</g>
			</g>
			<g>
				<defs>
					<path id="SVGID_13_" d="M140.2,118.48c-3.71,0-5.77-1.88-5-5.53l6.59-30.89c0.88-4.24,3.65-5.71,7.36-5.71
						c3.71,0,5.83,2.06,5.06,5.71l-4.88,23.01h-6.83l-1.77,8.3c-0.12,0.41,0.06,0.59,0.41,0.59c0.47,0,0.65-0.24,0.77-0.59
						l0.94-4.41h5.65l-0.82,3.88C146.74,117.07,143.91,118.48,140.2,118.48z M148.21,80.77c-0.41,0-0.59,0.24-0.71,0.71l-4.06,19.06
						h1.18l4.06-19.06C148.79,81,148.56,80.77,148.21,80.77z"/>
				</defs>
				<clipPath id="SVGID_14_">
					<use xlink:href="#SVGID_13_"  style="overflow:visible;"/>
				</clipPath>
				<g class="st9">
					<path class="st3" d="M140.76,119.17c-3.71,0-5.77-1.88-5-5.53l6.59-30.89c0.88-4.24,3.65-5.71,7.36-5.71
						c3.71,0,5.83,2.06,5.06,5.71l-4.88,23.01h-6.83l-1.77,8.3c-0.12,0.41,0.06,0.59,0.41,0.59c0.47,0,0.65-0.24,0.77-0.59
						l0.94-4.41h5.65l-0.82,3.88C147.29,117.76,144.47,119.17,140.76,119.17z M148.76,81.45c-0.41,0-0.59,0.24-0.71,0.71L144,101.22
						h1.18l4.06-19.06C149.35,81.69,149.12,81.45,148.76,81.45z"/>
				</g>
			</g>
			<g>
				<defs>
					<path id="SVGID_15_" d="M156.68,118.48c-2.29,0-3.77-1.41-3.35-3.3c0.41-1.88,2.47-3.3,4.77-3.3c2.35,0,3.77,1.41,3.35,3.3
						C161.03,117.07,159.03,118.48,156.68,118.48z M156.27,110.13L163.74,71h6.41l-9.24,39.13H156.27z"/>
				</defs>
				<clipPath id="SVGID_16_">
					<use xlink:href="#SVGID_15_"  style="overflow:visible;"/>
				</clipPath>
				<g class="st10">
					<path class="st3" d="M157.24,119.17c-2.29,0-3.77-1.41-3.35-3.3c0.41-1.88,2.47-3.3,4.77-3.3c2.35,0,3.77,1.41,3.35,3.3
						C161.59,117.76,159.59,119.17,157.24,119.17z M156.83,110.81l7.47-39.13h6.41l-9.24,39.13H156.83z"/>
				</g>
			</g>
		</g>
	</g>
</g>
</svg>
