<?xml version="1.0" encoding="utf-8"?>
<!-- Generator: Adobe Illustrator 24.2.1, SVG Export Plug-In . SVG Version: 6.00 Build 0)  -->
<svg version="1.1" id="レイヤー_1" xmlns="http://www.w3.org/2000/svg" xmlns:xlink="http://www.w3.org/1999/xlink" x="0px"
	 y="0px" viewBox="0 0 200 200" style="enable-background:new 0 0 200 200;" xml:space="preserve">
<g>
	<path d="M43.28,63.66c-0.69,0.42-1.17,0.54-1.53,0.59c-1.2-1.33-1.61-1.54-2.47-1.29c0.33,1.27,1.72,3.82,2.2,4.61
		c1.44,2.34,2.27,2.67,5.38,0.76c0.18-0.11,0.83-0.54,1.11-0.71c0.25,0.13,0.59,0.51,0.72,0.72c0.99,1.6,0.36,3.39-2,4.84
		c-3.49,2.14-6.31,2.12-9.03-2.31c-2.38-3.87-3.19-6.84-1.25-8.95c0.53-1.48,1.38-2.6,2.68-3.4c1.96-1.2,3.49-0.71,4.45,0.85
		C44.71,61.31,44.63,62.83,43.28,63.66z"/>
	<path d="M56.86,61.7c1.87,1.02,2.08,0.99,3.17,0.65c0.24,0.19,0.48,0.51,0.61,0.81c0.7,1.62,0.2,3.4-1.59,4.17
		c-1.23,0.53-1.77,0.27-2.82-0.57c-1.31-1-1.96-1.46-2.62-1.54l0.63,1.84c0.49,1.51,0.19,2.1-1.43,2.8
		c-1.81,0.78-2.11,0.39-3.17-2.08c-0.6-1.4-1.43-3.38-2.07-5.09c-0.4-1-0.81-2.03-1.22-3.05c-0.39-0.52-0.68-1.04-0.9-1.56
		c-0.47-1.1-0.04-1.84,2.47-3.18c0.94-0.92,1.75-1.53,3.06-2.1c2.93-1.27,4.87-0.02,5.94,2.45C57.91,57.51,57.73,59.05,56.86,61.7z
		 M52.33,61.93c0.38-0.17,1.39-0.4,1.77-0.41c-0.01-1.16-0.19-2.17-0.57-3.04c-0.58-1.34-1.36-1.79-2.98-1.25L52.33,61.93z"/>
	<path d="M61.51,50.1c0.86-0.82,2.24-1.56,3.83-1.99c1.85-0.5,2.89,0.06,3.35,1.18c1.12,2.79,3.03,7.14,4.61,9.81
		c0.77,0.32,1.11,0.57,1.27,1.17c0.43,1.59-1.42,2.79-3.5,3.35c-1.21,0.32-1.75-0.3-2.72-2.43c-0.67,0.27-1.77,0.57-2.92,0.88
		c0,0.46,0.25,2.32,0.33,2.63c-0.15,0.26-0.54,0.52-1.21,0.69c-1.04,0.28-2.67,0.31-3.06-1.16C61.3,63.49,60.91,55.92,61.51,50.1z
		 M64.91,53.08c-0.01,1.33,0.1,4.06,0.24,5.97c0.43-0.12,1.55-0.45,2.05-0.67C66.67,57.32,65.57,54.61,64.91,53.08z"/>
	<path d="M83.52,61.35c-0.79,0.19-1.79,0.35-2.89,0.5c-3.47,0.45-5.14,0.37-5.52-0.7c-0.2-0.37-0.29-1.11-0.36-1.64
		c-0.07-0.53,0.08-1.25,0.69-2.38l3.35-6.49c-1.14,0.06-3.2,0.17-4.4,0.24c-0.38-0.37-0.6-0.95-0.7-1.72
		c-0.27-2.07,1.23-3.05,3.33-3.33c1.78-0.23,3.87-0.35,6.23-0.57c0.62-0.08,1.27,0.23,1.53,2.27c0.14,1.07-0.25,1.78-1.19,2.66
		c-0.49,1.09-1.37,2.92-2.14,4.41c-0.46,0.9-0.94,1.81-1.45,2.75c0.98-0.13,4.46-0.73,5.02-0.8c0.36,0.19,0.62,1.04,0.68,1.51
		C85.92,59.87,84.88,61.09,83.52,61.35z"/>
	<path d="M96.54,43.57c1.64-0.01,2.48,0.76,2.64,1.87l-3.98,8.51l-0.01,3.74c0.01,1.17-0.82,2.37-3.72,2.38
		c-1.37,0.01-1.76-0.38-1.78-2.17c0-0.75,0.02-1.7,0.02-2.39c0.03-0.45,0.02-0.87,0.05-1.32l-2.61-6.65
		c-0.63-0.47-0.93-1.19-0.94-1.76c-0.01-1.37,2.14-2.16,3.72-2.17c1.11-0.01,1.74,0.44,2.16,1.66l1.34,3.79l1.26-3.86
		C95.08,43.99,95.44,43.57,96.54,43.57z"/>
	<path d="M101.43,43.2l3.03,0.33l4.1,6.48l5.36-5.46l3.01,0.32l-1.63,15.19l-1.07-0.11l1.53-14.26l-1.47-0.16l-5.89,5.99l-4.51-7.11
		l-1.49-0.16l-1.53,14.26L99.8,58.4L101.43,43.2z M103.36,45.66l0.13,0.01l4.68,7.4l0.13,0.01l6.1-6.24l0.13,0.01l-1.39,12.97
		l-1.07-0.11l1.11-10.34l-4.86,4.98l-0.45-0.05l-3.76-5.9l-1.11,10.34l-1.05-0.11L103.36,45.66z"/>
	<path d="M127.18,47.97l2.71,0.88l1.87,16.75l-1.11-0.36l-1.71-15.71l-1.41-0.46l-10.35,11.79l-1.09-0.35L127.18,47.97z
		 M121.64,57.27l7.44,2.41l0.46,5.19l-1.11-0.36l-0.34-4.19l-5.99-1.94l-2.71,3.2l-1.11-0.36L121.64,57.27z M127.56,50.28l0.64,0.21
		l0.78,8.12l-6.61-2.14L127.56,50.28z M127.89,57.32l-0.51-5.4l-3.37,4.14L127.89,57.32z"/>
	<path d="M140.19,52.66l2.68,1.45l1.34,7.56l7.04-3.03l2.66,1.44l-7.27,13.45l-0.95-0.51l6.82-12.62l-1.3-0.7l-7.73,3.32l-1.48-8.29
		L140.68,54l-6.82,12.62l-0.95-0.51L140.19,52.66z M141.03,55.67l0.12,0.06l1.53,8.63l0.12,0.06l8.02-3.47l0.12,0.06l-6.2,11.48
		l-0.95-0.51l4.94-9.15l-6.39,2.77l-0.4-0.21l-1.25-6.89l-4.95,9.15l-0.93-0.5L141.03,55.67z"/>
	<path d="M162.49,66.49l2.19,1.81l-4.41,16.26l-0.9-0.74l4.17-15.23l-1.14-0.94l-13.95,7.16l-0.88-0.73L162.49,66.49z M153.93,73.1
		l6.03,4.97l-1.48,5l-0.9-0.74l1.22-4.02l-4.86-4.01l-3.69,1.98l-0.9-0.74L153.93,73.1z M161.99,68.78l0.52,0.43l-2.25,7.84
		l-5.36-4.42L161.99,68.78z M159.72,75.44l1.51-5.21l-4.65,2.61L159.72,75.44z"/>
	<g>
		<path d="M50.65,145.81c0,0.24-0.06,0.49-0.12,0.74c-0.24,0.75-1.09,1.3-1.34,2.05c-0.06,0.19-0.12,0.37-0.12,0.56
			c0,0.49,0.3,0.83,0.79,1.1c0.67,0.38,2.92,0.88,3.47,1.27c0.37,0.28,0.79,1.04,0.79,1.77c0,0.12-0.06,0.25-0.06,0.37
			c-0.3,1.54-1.1,3.06-1.64,4.26c-0.49,1.01-0.43,2.34-0.67,3.27c-0.12,0.44-0.18,0.87-0.18,1.35c0,0.97,0.3,1.99,0.85,2.31
			c0.3,0.16,0.61,0.2,0.91,0.18c0.79-0.06,1.64-0.61,2.19-1.01l0.79-0.54c0.61-0.53,1.16-0.88,1.58-1.45
			c0.79-0.97,2.19-2.6,3.1-3.39c0.67-0.54,1.34-2.35,2.43-2.43c0.12,0.05,0.3,0.04,0.37,0.16c0.06,0.06,0.18,0.23,0.18,0.35
			c0,0.06-0.06,0.19-0.12,0.25c-0.43,0.64-1.28,1.68-1.7,2.26c-0.18,0.2-0.43,0.27-0.61,0.41c-0.24,0.2-0.37,0.51-0.49,0.71
			c-0.43,0.52-0.97,0.92-1.46,1.32c-0.49,0.34-0.67,1.02-1.1,1.42c-1.34,1.07-2.74,2.15-4.26,3.05c-0.79,0.42-1.64,0.73-2.49,0.79
			c-1.52,0.11-2.98-0.45-3.65-1.8c-0.18-0.29-0.18-0.66-0.18-1.02c0-0.49,0.06-1.04,0.06-1.59c0-0.37,0-0.73-0.12-1.03
			c0-0.55,0.18-1.66,0.3-2.03c0.3-1.18,0.43-2.1,0.79-3.22c0.18-0.68,0.85-1.52,0.85-2.25c0-0.12,0-0.3-0.06-0.42
			c-0.3-0.65-0.73-1.29-1.64-1.34c-0.06-0.06-0.18-0.11-0.24-0.1c-0.06,0-0.12,0.07-0.18,0.14c-0.67,0.72-1.46,1.33-2.01,2.09
			c-0.61,0.9-1.28,1.74-2.01,2.52c-0.43,0.33-1.22,0.88-1.46,1.26c-0.43,0.64-0.37,0.82-0.91,1.04c-0.37,0.03-0.67-0.13-0.67-0.38
			c0-0.12,0.06-0.25,0.18-0.38c0.36-0.39,0.55-0.65,0.91-1.16c0.12-0.19,0.43-0.4,0.67-0.66c0.55-0.59,1.22-1.37,1.89-2.21
			c0.37-0.39,0.73-0.72,1.03-1.11c0.18-0.26,0.49-1.01,0.55-1.07c0.18-0.32,0.43-0.34,0.73-0.6c0.06-0.07,0.3-0.75,0.3-1.12
			c-0.06-0.24-0.06-0.48-0.06-0.79v-0.85c0-1.64,0.43-3.07,1.34-3.87c0.24-0.26,0.55-0.47,0.85-0.61c0.12-0.01,0.24-0.08,0.3-0.08
			c0.3-0.02,0.55,0.14,0.85,0.42C50.47,145.03,50.65,145.38,50.65,145.81z"/>
		<path d="M78.7,158.23l0.55-0.04c0.37-0.03,0.73-0.05,1.16-0.27c0.43-0.15,0.73-0.3,1.1-0.57c0.06-0.07,0.67-0.29,0.91-0.49
			c0.49-0.34,0.91-0.74,1.34-1.13c0.24-0.2,0.49-0.46,0.79-0.48c0.06,0,0.43,0.46,0.43,0.7c0,0.24-1.83,1.53-2.13,1.74
			c-0.24,0.2-0.43,0.4-0.79,0.48c-0.12,0.01-0.36,0.03-0.49,0.1c-0.18,0.07-0.24,0.26-0.43,0.34c-0.97,0.44-1.83,0.62-2.62,0.68
			c-0.97,0.07-1.7-0.12-2.25-0.5c-0.49,0.95-0.73,0.84-1.28,1.62l-0.12,0.19c-0.61,0.84-1.1,1.66-1.89,2.33
			c-0.3,0.2-0.49,0.16-0.73,0.42c-0.18,0.2-0.24,0.69-0.43,0.82c-0.06,0-0.06,0.07-0.24,0.2c-0.73,0.66-1.28,1.13-2.01,1.49
			c-0.91,0.43-1.89,0.69-2.8,0.75c-1.76,0.13-3.41-0.42-4.2-1.88c-0.55-0.93-0.73-2.32-0.73-3.72c0-1.16,0.12-2.32,0.43-3.2
			c0.3-0.75,0.18-1.47,0.61-2.11c0.12-0.19,0.3-0.33,0.43-0.46c0.36-0.64,0.43-1.49,0.79-2.13c0.67-1.08,1.4-2.05,2.25-3.15
			c0.18-0.26,0.43-0.27,0.61-0.47c0.18-0.26,0.43-0.7,0.61-0.9c0.97-1.04,2.19-1.86,3.41-2.5c0.06-0.07,0.18-0.07,0.3-0.08
			l0.43-0.03c0.79-0.06,1.7-0.67,2.37-0.84c0.3-0.08,0.67-0.11,0.97-0.13c1.16-0.08,2.07,0.21,3.04,1.05
			c0.55,0.45,1.16,1.44,1.16,3.08v0.43c0,0.24-0.12,0.37-0.18,0.62c0,0.18,0,0.79-0.06,0.98c-0.12,0.68-0.3,1.3-0.61,2.11
			c0,1.64-0.79,3.41-1.46,4.55C77.3,158.15,77.91,158.29,78.7,158.23z M75.78,147.18c-0.12,0.01-0.3,0.08-0.43,0.09
			c-1.46,0.35-2.19,0.89-3.41,1.83c-0.67,0.54-1.1,1.24-1.64,1.89c-0.49,0.58-1.1,1.11-1.52,1.82c-0.24,0.44-0.06,0.8-0.79,1.34
			c-0.3,0.2-0.79,0.36-0.97,0.68c0,0.3,0.12,0.66,0.12,0.84c0,0.85-0.91,2.26-1.16,3.07c-0.18,0.56-0.49,1.07-0.61,1.63v1.22
			c0,1.22,0.3,2.29,1.16,2.71c0.43,0.21,0.85,0.24,1.4,0.2c0.91-0.07,1.89-0.44,2.68-1.11c0.85-0.73,1.4-1.32,2.01-2.09
			c0.85-0.97,1.7-2.07,2.5-3.47c-0.43-0.46-0.97-1.57-1.1-2.05c-0.06-0.36-0.12-0.6-0.12-0.9v-1.58c0-0.73,0.61-1.38,1.28-1.86
			c0.43-0.28,0.91-0.43,1.34-0.46c0.3-0.02,0.61,0.02,0.79,0.18c0.12,0.11,0.24,0.17,0.3,0.28l0.12-0.86c0-0.12,0.18-0.38,0.18-0.5
			c0-0.18-0.18-0.41-0.18-0.53c-0.06-0.6-0.12-1.27-0.43-1.67C76.94,147.34,76.33,147.14,75.78,147.18z"/>
		<path d="M99.7,156.69l0.55-0.04c0.37-0.03,0.73-0.05,1.16-0.27c0.43-0.15,0.73-0.3,1.1-0.57c0.06-0.07,0.67-0.29,0.91-0.49
			c0.49-0.34,0.91-0.74,1.34-1.13c0.24-0.2,0.49-0.46,0.79-0.48c0.06,0,0.43,0.46,0.43,0.7c0,0.24-1.83,1.53-2.13,1.74
			c-0.24,0.2-0.43,0.4-0.79,0.48c-0.12,0.01-0.37,0.03-0.49,0.1c-0.18,0.08-0.24,0.26-0.43,0.34c-0.97,0.44-1.83,0.62-2.62,0.68
			c-0.97,0.07-1.71-0.12-2.25-0.5c-0.49,0.95-0.73,0.84-1.28,1.61l-0.12,0.19c-0.61,0.84-1.1,1.66-1.89,2.33
			c-0.3,0.2-0.49,0.16-0.73,0.42c-0.18,0.2-0.24,0.69-0.43,0.82c-0.06,0-0.06,0.07-0.24,0.2c-0.73,0.66-1.28,1.13-2.01,1.49
			c-0.91,0.43-1.89,0.69-2.8,0.75c-1.76,0.13-3.41-0.42-4.2-1.88c-0.55-0.93-0.73-2.32-0.73-3.72c0-1.16,0.12-2.32,0.43-3.2
			c0.3-0.75,0.18-1.47,0.61-2.11c0.12-0.19,0.3-0.33,0.43-0.46c0.37-0.64,0.43-1.49,0.79-2.13c0.67-1.08,1.4-2.05,2.25-3.15
			c0.18-0.26,0.43-0.27,0.61-0.47c0.18-0.26,0.43-0.7,0.61-0.9c0.97-1.05,2.19-1.86,3.41-2.5c0.06-0.07,0.18-0.07,0.3-0.08
			l0.43-0.03c0.79-0.06,1.7-0.67,2.37-0.84c0.3-0.08,0.67-0.11,0.97-0.13c1.16-0.08,2.07,0.21,3.04,1.05
			c0.55,0.45,1.16,1.44,1.16,3.08V148c0,0.24-0.12,0.37-0.18,0.62c0,0.18,0,0.79-0.06,0.98c-0.12,0.68-0.3,1.3-0.61,2.11
			c0,1.64-0.79,3.41-1.46,4.55C98.3,156.61,98.91,156.74,99.7,156.69z M96.78,145.64c-0.12,0.01-0.3,0.08-0.43,0.09
			c-1.46,0.35-2.19,0.89-3.41,1.83c-0.67,0.54-1.1,1.24-1.64,1.89c-0.49,0.58-1.1,1.12-1.52,1.82c-0.24,0.44-0.06,0.8-0.79,1.34
			c-0.3,0.2-0.79,0.36-0.97,0.68c0,0.3,0.12,0.66,0.12,0.84c0,0.85-0.91,2.26-1.16,3.07c-0.18,0.56-0.49,1.07-0.61,1.63v1.22
			c0,1.22,0.3,2.29,1.16,2.71c0.43,0.21,0.85,0.24,1.4,0.2c0.91-0.07,1.89-0.44,2.68-1.11c0.85-0.73,1.4-1.32,2.01-2.09
			c0.85-0.97,1.7-2.07,2.5-3.47c-0.43-0.46-0.97-1.57-1.1-2.05c-0.06-0.36-0.12-0.6-0.12-0.9v-1.58c0-0.73,0.61-1.38,1.28-1.86
			c0.43-0.27,0.91-0.43,1.34-0.46c0.3-0.02,0.61,0.02,0.79,0.18c0.12,0.11,0.24,0.17,0.3,0.28l0.12-0.86c0-0.12,0.18-0.38,0.18-0.5
			c0-0.18-0.18-0.41-0.18-0.53c-0.06-0.6-0.12-1.27-0.43-1.67C97.93,145.8,97.32,145.6,96.78,145.64z"/>
		<path d="M111.5,148.88c-0.49,0.83-2.07,2.46-2.74,3.12c-0.97,0.92-0.73,1.82-2.01,2.28c-0.12,0.07-0.24,0.08-0.37,0.09
			c-0.24,0.02-0.49-0.03-0.67-0.19c-0.06-0.06-0.06-0.12-0.06-0.18c0-0.12,0.06-0.25,0.18-0.44c0.18-0.26,0.43-0.27,0.73-0.6
			c0.24-0.2,0.3-0.51,0.55-0.77c0.3-0.33,0.61-0.47,0.91-0.86c0.18-0.2,0.3-0.57,0.49-0.77c0.24-0.26,0.12-0.31,0.37-0.57
			c0.18-0.26,0.43-0.4,0.67-0.66c0.91-1.1,1.77-2.32,2.5-3.17c0.85-1.04,1.28-2.65,2.37-3.46c0.06-0.07,1.16-0.88,1.76-0.92
			c0.18-0.01,0.37,0.03,0.49,0.15c0.3,0.34,0.3,0.77,0.43,1.25c0.06,0.24,0.06,0.48,0.06,0.73c0,1.1-0.37,2.22-0.61,3.39
			c-0.06,0.37-1.1,3.06-1.16,3.98c0,0.06,0.06,0.12,0.12,0.11c0.61-0.04,2.31-2.36,2.74-2.82c0.97-0.98,1.46-1.81,2.37-2.43
			c0.12-0.07,0.55-0.1,0.67-0.17c0.18-0.13,0.3-0.57,0.43-0.76c0.61-0.84,1.7-1.4,2.8-2.15c0.55-0.41,1.64-0.79,2.68-0.87
			c0.73-0.05,1.4,0.02,1.83,0.41c0.61,0.5,0.85,1.21,0.85,2.01c0,0.79-0.24,1.66-0.49,2.35c0,0.12-0.12,0.25-0.12,0.37
			c-0.12,0.5-0.06,1.22-0.3,1.85c-0.3,0.94-0.73,1.94-0.73,2.49c0.24-0.38,0.73-0.54,1.03-0.87c0.3-0.33,0.49-0.89,0.85-1.16
			c0.3-0.2,0.49-0.4,0.61-0.65c0.24-0.38,0.91-1.59,2.01-2.52c0.12-0.13,0.49-0.16,0.61-0.29c0.18-0.2,0.37-0.64,0.55-0.83
			c1.4-1.26,2.92-2.34,4.08-2.43c0.12-0.01,0.24,0.04,0.37,0.03c0.61,0.08,1.1,0.28,1.46,0.74c0.3,0.46,0.49,1.61,0.61,2.88
			c0,0.49-0.18,0.74-0.18,1.11c0,0.24,0.24,0.59,0.24,0.83c0,1.04-0.06,1.95-0.18,2.51c-0.06,0.37-0.06,0.92-0.06,1.4v2.49
			c0,1.22,0.12,2.61,0.85,3.1c0.3,0.16,0.73,0.25,1.16,0.22c0.49-0.04,0.91-0.19,1.16-0.33c0.24-0.02,0.49-0.4,0.79-0.42
			c0.12-0.01,0.18,0.05,0.24,0.1c0.06,0.12,0.12,0.17,0.12,0.29c0,0.3-0.3,0.57-0.61,0.84c-0.43,0.34-0.61,0.53-1.04,0.81
			c-0.18,0.07-0.43,0.4-0.61,0.47c-0.61,0.35-1.28,0.64-2.01,0.88c-0.73,0.05-1.83-0.05-2.19-0.27c-0.55-0.26-1.1-0.89-1.34-1.42
			c-0.24-0.47-0.06-1.58-0.24-2.11c-0.06-0.18-0.37-0.46-0.37-0.64c-0.06-0.54-0.12-1.94-0.12-2.43v-2.37c0-1.1,0-2.31,0.18-3.73
			v-0.37c0-0.85-0.37-1.31-0.91-1.27c-0.24,0.02-0.55,0.16-0.85,0.43c-0.37,0.33-0.67,0.84-1.1,1.11c-0.12,0.07-0.18,0.14-0.24,0.14
			c-0.37,0.21-0.55,0.59-0.85,0.85c-0.43,0.33-0.61,0.9-0.85,1.34c-0.3,0.51-1.46,1.2-1.76,1.71c-0.12,0.31-0.18,0.62-0.3,0.87
			l-0.24,0.14c-0.24,0.32-0.37,0.76-0.67,1.14l-0.3,0.2c-0.37,0.57-0.37,1.06-0.61,1.69c-0.18,0.5-0.67,0.96-0.79,1.46
			c-0.18,0.56,0,0.73-0.24,1.48c-0.06,0.13-0.73,0.36-0.85,0.43c0,0,0.61,0.02,0.61,0.38c0,0.12-0.36,0.76-0.61,1.02
			c-0.12,0.19-0.49,0.4-0.73,0.54c-0.3,0.14-0.61,0.23-0.91,0.25c-0.3,0.02-0.55-0.02-0.79-0.19c-0.61-0.44-0.85-0.61-0.85-1.03
			c0-0.12,0-0.24,0.06-0.43c0.12-0.44,0.06-0.8,0.12-1.23l0.49-1.5c0.24-0.81,0.12-1.47,0.43-2.28l0.67-1.81
			c0.06-0.31,0.06-0.49,0.06-0.73c0-0.24,0-0.43,0.12-0.74c0.49-1.68,1.46-3.21,1.46-4.61c0-0.49-0.12-0.9-0.37-1.31
			c-0.12-0.23-0.43-0.33-0.73-0.31c-0.37,0.03-0.73,0.18-1.04,0.32c-1.16,0.57-2.49,2.01-3.83,3.26c-0.49,0.46-0.73,1.27-1.28,1.74
			c-1.52,1.27-3.35,3.35-4.2,5.18c-0.3,0.63-0.24,1.24-0.55,1.87c-0.06,0.07-0.24,0.08-0.3,0.14c-0.3,0.39-0.24,0.93-0.43,1.31
			c-0.12,0.19-0.37,0.27-0.43,0.4c-0.18,0.26-0.3,0.75-0.36,0.94c-0.18,0.56,0,0.85-0.24,1.48c-0.24,0.5-0.73,1.09-1.16,1.24
			c-0.18,0.07-0.3,0.08-0.43,0.09c-0.3,0.02-0.37-0.16-0.73-0.31c-0.55-0.14-1.22-0.64-1.22-1.13s0.3-1.73,0.67-2.48
			c0.61-1.32,0.49-2.53,1.22-3.92c0.12-0.25,0.73-0.6,0.79-0.85v-0.85c0.12-0.98,0.73-2.06,1.1-3.06c0.43-1.01,0.55-2.11,1.03-3
			c0.12-0.13,0.24-0.51,0.24-0.75c0-0.12-0.06-0.24-0.18-0.23C112.9,147.56,111.99,148.05,111.5,148.88z"/>
	</g>
	<g>
		<g>
			<path d="M41.37,133c-0.08,0-0.17-0.01-0.25-0.03l-2.62-0.62c-0.32-0.07-0.58-0.28-0.73-0.57l-0.54-1.08
				c-0.11-0.22-0.14-0.48-0.09-0.73l0.28-1.27v-0.8c0-0.05,0-0.1,0.01-0.15l0.22-1.54v-0.38c0-0.05,0-0.1,0.01-0.15l0.15-1.08
				c0.01-0.07,0.02-0.13,0.04-0.19l0.38-1.15c0.04-0.13,0.11-0.25,0.2-0.35l0.3-0.36l0.15-0.3l0.21-0.56
				c0.04-0.1,0.09-0.19,0.15-0.27l0.4-0.54l0.26-0.53c0.03-0.07,0.08-0.13,0.12-0.19l1.02-1.3l0.27-0.48
				c0.02-0.04,0.05-0.08,0.07-0.11l0.23-0.31c0.02-0.03,0.04-0.05,0.06-0.08l0.69-0.77l0.44-0.56l0.34-0.62
				c0.04-0.07,0.09-0.14,0.15-0.2l1.67-1.82l0.51-0.66c0.03-0.04,0.06-0.07,0.09-0.1l1.16-1.16l0.15-0.34
				c0.03-0.07,0.07-0.14,0.11-0.2l1.69-2.39c0.04-0.05,0.08-0.1,0.12-0.15l0.55-0.55l0.27-0.38l0.34-0.75
				c0.05-0.12,0.13-0.23,0.22-0.32l1.67-1.62l0.06-0.19c0.04-0.13,0.11-0.25,0.2-0.35l0.35-0.42l1.2-1.8l1.31-1.77
				c0.04-0.06,0.09-0.11,0.14-0.17l0.35-0.35l0.66-0.86l0.74-1.25c0.02-0.03,0.04-0.06,0.06-0.09L57.69,97l0.33-0.6l0.57-1.22
				l0.2-0.68c0.02-0.06,0.04-0.12,0.07-0.17l0.18-0.37l0.19-0.69l0.36-2.31v-1.03l-0.06-0.67l-0.2-0.6l-0.41-0.46l-0.98-0.22h-0.65
				l-0.46,0.06l-0.29,0.08l-0.73,0.45l-0.68,0.87l-0.22,0.38l-0.33,0.86l-0.58,2.56l-0.3,2.19c-0.01,0.05-0.02,0.1-0.03,0.15
				l-0.11,0.39v0.39c0,0.15-0.03,0.3-0.09,0.44l-0.31,0.69c-0.13,0.29-0.38,0.51-0.68,0.6l-0.77,0.23c-0.1,0.03-0.21,0.05-0.31,0.05
				h-2.85c-0.05,0-0.09,0-0.14-0.01l-0.51-0.06L47,98.37c-0.07,0.01-0.15,0-0.22-0.01l-0.5-0.06l-0.73,0.07c-0.05,0-0.11,0-0.16,0
				l-1.31-0.08c-0.1-0.01-0.19-0.02-0.28-0.05l-0.46-0.15c-0.13-0.04-0.25-0.11-0.35-0.2l-0.46-0.38c-0.23-0.19-0.37-0.47-0.39-0.76
				l-0.08-1.08c0-0.05,0-0.1,0-0.15l0.23-2.62v-0.77c0-0.06,0-0.11,0.01-0.17l0.15-1l0.07-0.78c0-0.05,0.01-0.09,0.02-0.14
				l0.36-1.58v-0.41c0-0.15,0.03-0.29,0.09-0.43l0.17-0.41l0.06-0.4c0.01-0.1,0.04-0.19,0.08-0.28l0.17-0.4l0.06-0.4
				c0.01-0.07,0.02-0.13,0.04-0.19l0.38-1.15c0.02-0.05,0.04-0.1,0.06-0.14l1.48-2.8c0.03-0.05,0.06-0.1,0.1-0.15l1.34-1.78
				c0.05-0.07,0.11-0.14,0.17-0.2l0.92-0.85c0.06-0.05,0.13-0.1,0.2-0.14l1.08-0.62c0.06-0.04,0.13-0.07,0.2-0.09l0.54-0.18
				l0.4-0.29c0.08-0.06,0.17-0.1,0.26-0.14l0.85-0.31c0.03-0.01,0.06-0.02,0.09-0.03l0.85-0.23c0.04-0.01,0.07-0.02,0.11-0.02
				l0.92-0.15l1.36-0.16c0.04,0,0.08-0.01,0.13-0.01h0.72l0.88-0.07c0.03,0,0.06,0,0.09,0h0.64l0.8-0.07c0.07-0.01,0.14-0.01,0.21,0
				l0.68,0.07l0.98-0.07c0.07,0,0.14,0,0.21,0l1.92,0.23c0.03,0,0.07,0.01,0.1,0.02L64,76.59l1.2,0.32c0.05,0.01,0.1,0.03,0.15,0.05
				l1.04,0.44l0.65,0.22c0.03,0.01,0.06,0.02,0.08,0.03l0.54,0.23c0.18,0.08,0.33,0.2,0.44,0.35l0.08,0.1l0.23,0.12
				c0.11,0.05,0.2,0.12,0.28,0.21l0.38,0.39l1.35,1.51c0.07,0.08,0.14,0.18,0.18,0.28l0.7,1.64l0.4,1.03
				c0.03,0.07,0.05,0.14,0.06,0.21l0.07,0.42l0.38,1.69c0.01,0.05,0.02,0.1,0.02,0.15l0.08,1.08l0,1.85c0,0.03,0,0.06,0,0.09
				l-0.07,0.88v1.11c0,0.05,0,0.1-0.01,0.14l-0.39,2.79l-0.32,1.43l-0.15,0.95c-0.01,0.08-0.03,0.16-0.07,0.24l-0.15,0.38
				c-0.01,0.03-0.02,0.06-0.04,0.08l-0.28,0.56l-0.35,0.99c-0.01,0.04-0.03,0.08-0.04,0.11l-0.99,2.22
				c-0.01,0.03-0.03,0.06-0.04,0.09l-0.34,0.62l-0.28,0.77c-0.04,0.12-0.11,0.24-0.2,0.34l-0.26,0.31l-0.03,0.16
				c-0.03,0.19-0.11,0.37-0.24,0.52l-0.73,0.88l-0.24,0.36l-0.28,0.55c-0.02,0.03-0.04,0.07-0.06,0.1l-0.54,0.85
				c-0.03,0.05-0.07,0.1-0.11,0.15l-1.12,1.27l-0.57,0.79l-0.8,1.02L63.44,110c-0.05,0.1-0.12,0.2-0.2,0.28l-0.34,0.34l-0.23,0.46
				c-0.04,0.07-0.08,0.15-0.14,0.21l-1.34,1.57l-0.41,0.68c-0.06,0.1-0.14,0.2-0.24,0.28l-0.42,0.35l-0.67,0.67l-1.04,1.41
				c-0.06,0.08-0.14,0.16-0.22,0.22l-0.48,0.36l-0.44,0.63c-0.03,0.04-0.05,0.07-0.08,0.1l-0.66,0.73l-0.43,0.58
				c-0.03,0.04-0.07,0.08-0.1,0.12l-0.24,0.24l-0.48,0.69c-0.05,0.07-0.1,0.13-0.16,0.19l-0.64,0.57l0.31-0.02l3.44,0l1.32-0.07
				l3.98,0c0.03,0,0.06,0,0.09,0l0.8,0.07l1.59-0.22c0.1-0.01,0.19-0.01,0.29,0l0.54,0.08c0.33,0.05,0.63,0.25,0.79,0.54l0.31,0.54
				c0.09,0.15,0.14,0.32,0.14,0.5l0.08,1.77c0,0.06,0,0.13-0.01,0.19l-0.14,1.08v0.85c0,0.1-0.01,0.2-0.04,0.3l-0.11,0.39v0.46
				c0,0.05,0,0.09-0.01,0.14l-0.08,0.62c-0.01,0.04-0.01,0.09-0.02,0.13l-0.15,0.62l-0.12,0.68v0.75c0,0.16-0.03,0.31-0.1,0.45
				l-0.39,0.85c-0.07,0.16-0.18,0.29-0.31,0.4l-0.77,0.62c-0.16,0.13-0.35,0.21-0.55,0.23l-1.23,0.15c-0.08,0.01-0.17,0.01-0.26,0
				l-1.3-0.14l-2.76,0.15l-2.07,0l-0.55,0.07c-0.04,0.01-0.09,0.01-0.14,0.01h-3.39c-0.09,0-0.18-0.01-0.27-0.03l-0.35-0.09
				l-0.35,0.09c-0.09,0.02-0.18,0.03-0.27,0.03h-2.54c-0.1,0-0.2-0.01-0.3-0.04l-0.39-0.11h-0.39l-1.24,0.07l-2.53,0
				c-0.05,0-0.1,0-0.15-0.01l-0.42-0.06l-3.01,0.3C41.45,133,41.41,133,41.37,133z M39.51,130.35l1.94,0.46l3-0.29
				c0.08-0.01,0.16,0,0.24,0.01l0.46,0.07h2.38l1.85-0.08c0.1,0,0.2,0.01,0.3,0.04l0.39,0.11h2.25l0.49-0.12
				c0.17-0.04,0.36-0.04,0.53,0l0.49,0.12H57l0.55-0.07c0.04-0.01,0.09-0.01,0.14-0.01h2.08l2.79-0.15c0.06,0,0.12,0,0.18,0
				l1.26,0.14l0.8-0.1l0.32-0.26l0.18-0.39v-0.61c0-0.07,0.01-0.13,0.02-0.19l0.37-1.95v-0.55c0-0.1,0.01-0.2,0.04-0.3l0.11-0.39
				v-0.77c0-0.05,0-0.1,0.01-0.14l0.14-1.06l-0.05-1.21l-1.31,0.18c-0.08,0.01-0.16,0.01-0.24,0.01l-0.88-0.07h-3.88l-1.32,0.07
				l-3.45,0l-1.48,0.08c-0.11,0-0.22-0.01-0.32-0.03l-0.62-0.15c-0.34-0.08-0.62-0.33-0.75-0.65l-0.15-0.39
				c-0.15-0.37-0.08-0.79,0.17-1.1l1.08-1.31c0.03-0.04,0.07-0.08,0.11-0.11l0.68-0.61l0.47-0.67c0.04-0.05,0.08-0.1,0.12-0.15
				l0.25-0.25l0.41-0.55c0.02-0.03,0.04-0.05,0.06-0.08l0.65-0.72l0.5-0.71c0.07-0.1,0.15-0.18,0.24-0.25l0.49-0.37l0.97-1.32
				c0.03-0.05,0.07-0.09,0.11-0.13l0.77-0.77c0.02-0.02,0.05-0.05,0.07-0.07l0.32-0.27l0.37-0.61c0.03-0.06,0.08-0.11,0.12-0.16
				l1.28-1.49l0.25-0.5c0.05-0.1,0.12-0.2,0.2-0.28l0.34-0.34l0.15-0.3c0.03-0.07,0.07-0.13,0.12-0.19l1.87-2.41l0.74-0.81
				l0.46-0.72l0.28-0.57c0.02-0.04,0.04-0.08,0.07-0.12l0.31-0.46c0.02-0.03,0.04-0.06,0.07-0.09l0.58-0.7l0.03-0.17
				c0.03-0.2,0.12-0.38,0.25-0.53l0.33-0.39l0.24-0.66c0.02-0.05,0.04-0.11,0.07-0.16l0.36-0.65l1.34-3.2
				c0.01-0.04,0.03-0.07,0.05-0.11l0.38-0.8l0.13-0.88c0-0.03,0.01-0.07,0.02-0.1l0.3-1.33l0.36-2.63v-1.08c0-0.03,0-0.06,0-0.09
				l0.07-0.88v-1.72l-0.07-0.92l-0.36-1.58c-0.01-0.03-0.01-0.06-0.02-0.08l-0.06-0.35l-0.95-2.31l-1.41-1.55l-0.3-0.15
				c-0.15-0.08-0.28-0.19-0.39-0.32l-0.06-0.07l-0.23-0.1l-0.65-0.22c-0.03-0.01-0.06-0.02-0.09-0.03l-1-0.43l-1.08-0.29l-1.67-0.36
				l-1.77-0.21l-0.97,0.07c-0.06,0.01-0.12,0-0.19,0l-0.67-0.07l-0.74,0.07c-0.03,0-0.07,0-0.1,0h-0.65l-0.88,0.07
				c-0.03,0-0.06,0-0.09,0h-0.7L53,78.57l-0.75,0.2l-0.66,0.24l-0.42,0.3c-0.09,0.06-0.19,0.11-0.29,0.15l-0.59,0.2l-0.88,0.5
				l-0.74,0.67l-0.23,0.35l-1.07,1.38L46,85.16l-0.33,0.99l-0.06,0.44c-0.01,0.1-0.04,0.19-0.08,0.28l-0.17,0.4l-0.06,0.4
				c-0.01,0.1-0.04,0.19-0.08,0.28l-0.14,0.33v0.32c0,0.08-0.01,0.17-0.03,0.25l-0.37,1.62l-0.07,0.78l-0.15,0.98v0.76
				c0,0.05,0,0.1-0.01,0.15l-0.08,0.54l-0.14,1.92l0.04,0.51l0.08,0.03l1.08,0.06l0.77-0.07c0.08-0.01,0.16-0.01,0.23,0l0.51,0.06
				l0.89-0.07c0.07,0,0.15,0,0.22,0.01l0.55,0.07l2.76-0.06v-0.31c0-0.1,0.01-0.2,0.04-0.3l0.13-0.47l0.3-2.15
				c0-0.04,0.01-0.07,0.02-0.11l0.62-2.71c0.01-0.04,0.02-0.08,0.04-0.13l0.38-1c0.02-0.05,0.04-0.1,0.07-0.15l0.31-0.54
				c0.03-0.05,0.07-0.11,0.11-0.16l0.81-1.03c0.09-0.12,0.2-0.22,0.33-0.29l0.94-0.58c0.09-0.06,0.2-0.11,0.3-0.14l0.54-0.15
				c0.05-0.02,0.11-0.03,0.17-0.03l0.61-0.08c0.04-0.01,0.09-0.01,0.13-0.01h0.85c0.09,0,0.18,0.01,0.27,0.03l1.33,0.3
				c0.21,0.04,0.41,0.15,0.56,0.3l0.39,0.38l0.52,0.6c0.09,0.11,0.16,0.23,0.21,0.37l0.31,0.92c0.03,0.08,0.04,0.16,0.05,0.25
				l0.08,0.85c0,0.03,0,0.07,0,0.1v1.15c0,0.05,0,0.1-0.01,0.15l-0.39,2.49c-0.01,0.04-0.01,0.07-0.02,0.11l-0.23,0.85
				c-0.02,0.07-0.04,0.14-0.08,0.2l-0.19,0.38l-0.2,0.68c-0.02,0.06-0.04,0.12-0.07,0.17l-0.6,1.27c-0.01,0.03-0.03,0.05-0.04,0.08
				l-0.38,0.69c-0.02,0.04-0.04,0.07-0.07,0.1l-0.74,1.03l-0.75,1.28c-0.02,0.03-0.03,0.05-0.05,0.07l-0.39,0.54l-0.43,0.53
				c-0.02,0.03-0.04,0.05-0.07,0.07l-0.31,0.31l-0.25,0.37c-0.02,0.03-0.04,0.06-0.07,0.09l-0.38,0.46l-0.57,0.79l-1.21,1.81
				c-0.02,0.03-0.04,0.06-0.07,0.09l-0.25,0.3l-0.09,0.27c-0.06,0.18-0.17,0.34-0.31,0.47l-0.69,0.62l-0.97,0.97l-0.3,0.67
				c-0.03,0.06-0.07,0.13-0.11,0.18l-0.39,0.54c-0.03,0.05-0.07,0.09-0.12,0.14l-0.55,0.55l-1.57,2.21l-0.19,0.43
				c-0.05,0.13-0.13,0.24-0.23,0.34l-1.26,1.26l-0.5,0.64c-0.02,0.02-0.04,0.05-0.06,0.07l-1.6,1.75l-0.32,0.58
				c-0.03,0.05-0.06,0.1-0.09,0.14l-0.54,0.69l-0.87,1.01l-0.27,0.48c-0.02,0.04-0.05,0.08-0.07,0.11l-1.03,1.32l-0.26,0.51
				c-0.03,0.06-0.06,0.11-0.1,0.17l-0.37,0.49l-0.18,0.47c-0.01,0.03-0.03,0.07-0.05,0.1l-0.23,0.46c-0.04,0.08-0.08,0.15-0.14,0.21
				l-0.25,0.3L39.98,125l-0.13,0.9v0.38c0,0.05,0,0.1-0.01,0.15l-0.22,1.54v0.85c0,0.08-0.01,0.16-0.03,0.24l-0.22,1.01
				L39.51,130.35z"/>
			<path d="M82.34,132.92h-8.16c-0.05,0-0.1,0-0.14-0.01l-1.15-0.15c-0.39-0.05-0.71-0.3-0.86-0.66l-0.38-0.92
				c-0.09-0.22-0.11-0.46-0.05-0.68L71.7,130v-1.1c0-0.05,0-0.09,0.01-0.14l0.15-1.23c0.01-0.06,0.02-0.11,0.03-0.17l0.29-1
				l0.07-0.46l0.24-1.15c0.01-0.06,0.03-0.12,0.05-0.18l0.12-0.3l0.57-2.78v-0.44c0-0.09,0.01-0.18,0.03-0.26l0.12-0.49v-0.87
				c0-0.19,0.05-0.38,0.14-0.54l0.19-0.33l0.14-1.28c0.01-0.04,0.01-0.08,0.02-0.11l0.26-1.13l-0.05-0.37
				c-0.02-0.11-0.01-0.21,0-0.32l0.15-1c0-0.03,0.01-0.07,0.02-0.1l0.3-1.19l0.31-1.63l0.23-0.84l0.22-1.38
				c0.01-0.06,0.02-0.13,0.04-0.19l0.11-0.33l0.07-0.87c0-0.03,0.01-0.06,0.01-0.1l0.06-0.37v-0.37c0-0.14,0.03-0.29,0.08-0.42
				l0.34-0.81l0.13-0.85l0.15-1.8c0.01-0.11,0.04-0.21,0.08-0.31l0.35-0.85l0.26-1.15v-0.97c0-0.05,0-0.09,0.01-0.14l0.08-0.62
				c0.01-0.08,0.03-0.17,0.06-0.25l0.16-0.43v-0.42c0-0.15,0.03-0.29,0.09-0.43l0.14-0.33V96.9c0-0.1,0.01-0.2,0.04-0.3l0.13-0.47
				l0.14-0.93c0.01-0.04,0.01-0.08,0.03-0.12l0.42-1.43V92.9c0-0.05,0-0.1,0.01-0.16l0.08-0.54c0.01-0.06,0.02-0.13,0.04-0.19
				l0.13-0.39l0.35-1.98V89.2c0-0.15,0.03-0.3,0.09-0.44l0.26-0.59l0.11-0.51l0.16-1.53l0.15-1c0.01-0.06,0.02-0.13,0.04-0.19
				l0.12-0.37l0.38-2.39l0.22-0.94v-0.49c0-0.08,0.01-0.17,0.03-0.25l0.23-1c0.01-0.03,0.02-0.07,0.03-0.1l0.15-0.46
				c0.03-0.07,0.06-0.15,0.1-0.21l0.67-1.19c0.15-0.28,0.43-0.49,0.75-0.55l0.77-0.15c0.04-0.01,0.09-0.02,0.14-0.02l1.08-0.08
				c0.05,0,0.1,0,0.14,0l1.31,0.08l0.63,0l0.92-0.07c0.05,0,0.09,0,0.14,0l1.39,0.07l0.85-0.07c0.06,0,0.11,0,0.16,0l1.15,0.08l1,0
				c0.1,0,0.19,0.01,0.29,0.04l0.85,0.23c0.25,0.07,0.48,0.23,0.62,0.45l0.46,0.69c0.09,0.14,0.15,0.29,0.17,0.45l0.06,0.41
				l0.26,0.65c0.03,0.07,0.05,0.15,0.06,0.23l0.15,0.92l0.08,0.82l0.28,0.98c0.01,0.04,0.02,0.08,0.03,0.12l0.77,4.38l0.68,3.16
				c0.01,0.04,0.02,0.07,0.02,0.11l0.23,1.65l0.22,0.95c0.02,0.08,0.03,0.16,0.03,0.25v0.32l0.19,0.7c0.03,0.09,0.04,0.19,0.04,0.29
				v0.49l0.07,0.74l0.22,1.1c0.01,0.03,0.01,0.06,0.01,0.09l0.15,1.31l0.22,1.25c0.01,0.04,0.01,0.08,0.01,0.12l0.07,1.19l0.14,0.98
				l0.14,0.56c0.01,0.05,0.02,0.1,0.03,0.15l0.19,1.71l0.02-0.12v-2.54c0-0.08,0.01-0.15,0.02-0.23l0.37-2l0.07-0.6l0.07-1.02
				c0.01-0.09,0.02-0.18,0.05-0.27l0.12-0.37l0.13-0.9v-0.38c0-0.11,0.02-0.22,0.05-0.32l0.26-0.84V93.9c0-0.03,0-0.06,0-0.09
				l0.07-1.37c0-0.17,0.04-0.34,0.12-0.49l0.31-0.62l-0.03-0.2c-0.02-0.11-0.01-0.22,0-0.33l0.22-1.3v-0.37
				c0-0.08,0.01-0.17,0.03-0.25l0.22-0.96l0.07-0.49c0.01-0.07,0.02-0.13,0.05-0.19l0.12-0.37l0.21-1.58c0-0.03,0.01-0.06,0.02-0.09
				l0.4-1.69c0.01-0.03,0.02-0.06,0.03-0.08l0.16-0.43v-0.49c0-0.06,0-0.12,0.01-0.18l0.62-3.33c0.02-0.12,0.06-0.23,0.12-0.34
				l0.62-1.08c0.07-0.13,0.17-0.24,0.29-0.33l0.31-0.23c0.13-0.1,0.27-0.16,0.43-0.2l1.46-0.31c0.11-0.02,0.22-0.03,0.33-0.02
				l1.49,0.14l0.41-0.06c0.05-0.01,0.1-0.01,0.16-0.01h0.77l1.82,0.08l0.72,0l1-0.07c0.1-0.01,0.21,0,0.31,0.02l1.08,0.23
				c0.09,0.02,0.18,0.05,0.26,0.09l0.46,0.23c0.33,0.16,0.55,0.48,0.6,0.84l0.08,0.62c0.01,0.04,0.01,0.09,0.01,0.14v0.62
				c0,0.08-0.01,0.15-0.02,0.23l-0.19,0.9l0.05,0.43c0.01,0.09,0.01,0.19,0,0.28l-0.39,2.78c-0.01,0.04-0.01,0.07-0.02,0.11
				l-0.68,2.66l-0.22,1.33c0,0.03-0.01,0.06-0.02,0.08l-0.14,0.56l-0.22,1.56c-0.01,0.04-0.01,0.07-0.02,0.11l-0.29,1.17l-0.15,1.17
				c-0.01,0.07-0.02,0.14-0.05,0.21l-0.22,0.65l-0.26,1v0.85c0,0.1-0.01,0.2-0.04,0.3l-0.13,0.46l-0.3,2.23
				c-0.01,0.07-0.02,0.14-0.05,0.2l-0.19,0.57l-0.15,1.31c-0.01,0.04-0.01,0.07-0.02,0.11l-0.75,3.09l-0.15,1.03
				c-0.01,0.04-0.01,0.07-0.02,0.11l-0.11,0.43l0.06,0.5c0.02,0.16,0,0.32-0.05,0.47l-0.12,0.37l-0.06,0.44
				c-0.01,0.07-0.02,0.13-0.05,0.19l-0.12,0.37l-0.13,0.84v0.91c0,0.17-0.04,0.34-0.12,0.49l-0.17,0.34l-0.35,1.59l-0.29,2.44
				c0,0.1-0.01,0.2-0.04,0.3l-0.29,1.01l-0.14,1l-0.16,0.83c-0.02,0.08-0.04,0.16-0.07,0.23l-0.29,0.64l-0.25,0.75l-0.14,1.71
				l-0.16,1.08c-0.01,0.07-0.03,0.15-0.06,0.22l-0.22,0.57l-0.25,0.89v1.08c0,0.13-0.02,0.27-0.07,0.39l-0.31,0.81v0.26
				c0,0.1-0.01,0.2-0.04,0.3l-0.15,0.54l-0.22,0.95l-0.37,2.38c-0.03,0.18-0.1,0.34-0.21,0.49l-0.69,0.92
				c-0.07,0.09-0.15,0.17-0.25,0.24l-0.77,0.54c-0.16,0.11-0.35,0.18-0.55,0.19l-1.02,0.07l-0.79,0.14
				c-0.06,0.01-0.13,0.02-0.2,0.02h-0.31l-1.41-0.07l-0.43,0.06c-0.09,0.01-0.17,0.01-0.26,0.01l-0.62-0.06l-0.32,0.05
				c-0.06,0.01-0.12,0.01-0.18,0.01h-1.54l-1.08-0.08l-1.22,0c-0.27,0-0.52-0.1-0.72-0.27l-0.61-0.54
				c-0.11-0.09-0.19-0.21-0.26-0.33l-0.62-1.23c-0.02-0.04-0.04-0.08-0.05-0.12l-0.39-1.08c-0.02-0.05-0.03-0.1-0.04-0.16
				l-0.08-0.38c-0.01-0.04-0.01-0.08-0.02-0.12l-0.37-3.37l-0.38-2.08l-0.16-1.1l-0.08-1.13l-0.2-0.74l-0.25-1.23
				c-0.01-0.07-0.02-0.14-0.02-0.21v-0.35l-0.6-3.01c-0.01-0.06-0.01-0.12-0.01-0.18v-1.05l-0.29-1.43
				c-0.01-0.03-0.01-0.07-0.02-0.1l-0.15-1.46l-0.53-3.57l-0.38,2.61l-0.3,2.96c-0.01,0.08-0.03,0.16-0.05,0.23l-0.14,0.41
				l-0.16,0.67l0.08,0.27c0.05,0.18,0.06,0.38,0.01,0.57l-0.33,1.27l0.04,0.31c0.02,0.11,0.01,0.22,0,0.34l-0.23,1.51
				c-0.01,0.04-0.02,0.09-0.03,0.13l-0.31,1.15l-0.29,1.47l-0.22,1.5c-0.01,0.04-0.02,0.08-0.03,0.12l-0.13,0.46l-0.3,2.16
				c0,0.03-0.01,0.06-0.02,0.1l-0.28,1.37v0.92c0,0.12-0.02,0.23-0.06,0.35l-0.13,0.38l-0.22,1.3c-0.01,0.06-0.02,0.11-0.04,0.17
				l-0.53,1.66c-0.1,0.33-0.35,0.59-0.67,0.71l-0.85,0.31C82.59,132.9,82.46,132.92,82.34,132.92z M74.25,130.74h7.89l0.15-0.05
				l0.36-1.12l0.22-1.3c0.01-0.06,0.02-0.11,0.04-0.17l0.1-0.29v-0.82c0-0.05,0-0.1,0.01-0.16l0.08-0.54c0-0.03,0.01-0.06,0.02-0.09
				l0.22-0.95l0.3-2.18c0.01-0.05,0.02-0.1,0.03-0.15l0.14-0.48l0.22-1.45l0.32-1.6l0.31-1.16l0.2-1.33l-0.05-0.37
				c-0.02-0.15-0.01-0.31,0.03-0.46l0.3-1.14l-0.07-0.26c-0.05-0.18-0.06-0.37-0.01-0.55l0.23-1c0.01-0.03,0.02-0.07,0.03-0.1
				l0.12-0.35l0.3-2.88l0.54-3.68l0.07-1.87l0.23-2.21l0.15-3.63c0.02-0.59,0.5-1.05,1.09-1.05h0.23c0.54,0,1,0.39,1.08,0.92
				l0.92,5.68l0.24,2.22l0.69,4.58l0.15,1.45l0.3,1.49c0.01,0.07,0.02,0.14,0.02,0.21v1.06l0.06,0.37l0.53,2.57
				c0.02,0.07,0.02,0.15,0.02,0.23v0.35l0.21,1.05l0.21,0.77c0.02,0.07,0.03,0.14,0.04,0.21l0.08,1.15l0.22,1.43l0.38,2.08
				l0.23,2.08c0.01,0.03,0.01,0.06,0.01,0.09l0.12,1.11l0.34,0.94l0.49,0.98l0.14,0.13h0.9l1.08,0.08l1.36,0l0.37-0.06
				c0.1-0.02,0.19-0.02,0.29-0.01l0.64,0.06l0.41-0.06c0.07-0.01,0.14-0.01,0.21-0.01l1.46,0.08l0.15,0l0.75-0.14
				c0.04-0.01,0.08-0.01,0.12-0.01l0.78-0.06l0.38-0.27l0.42-0.57l0.34-2.19l0.37-1.52v-0.31c0-0.13,0.02-0.27,0.07-0.39l0.31-0.81
				v-1.03c0-0.1,0.01-0.2,0.04-0.3l0.31-1.08c0.01-0.03,0.02-0.06,0.03-0.08l0.19-0.51l0.14-0.89l0.15-1.78
				c0.01-0.08,0.03-0.17,0.05-0.25l0.31-0.92c0.01-0.03,0.02-0.07,0.04-0.1l0.26-0.58l0.13-0.65l0.14-1.02
				c0.01-0.05,0.02-0.1,0.03-0.15l0.27-0.93v-0.31c0-0.06,0-0.12,0.01-0.18l0.3-2.1c0-0.04,0.01-0.08,0.02-0.12l0.38-1.76
				c0.02-0.09,0.05-0.18,0.09-0.26l0.12-0.23v-0.74c0-0.06,0-0.12,0.01-0.18l0.15-0.98c0.01-0.06,0.02-0.13,0.04-0.19l0.12-0.37
				l0.06-0.44c0.01-0.07,0.02-0.13,0.05-0.19l0.08-0.23l-0.05-0.45c-0.01-0.13-0.01-0.26,0.03-0.39l0.14-0.56l0.15-1.02
				c0-0.03,0.01-0.06,0.02-0.09l0.83-3.6l0.07-0.79c0.01-0.08,0.03-0.17,0.05-0.25l0.2-0.59l0.29-2.21c0.01-0.05,0.02-0.1,0.03-0.16
				l0.11-0.39v-0.85c0-0.1,0.01-0.2,0.04-0.3l0.3-1.12c0.01-0.03,0.01-0.05,0.02-0.08l0.2-0.59l0.14-1.12
				c0.01-0.04,0.01-0.09,0.02-0.13l0.29-1.18l0.22-1.56c0.01-0.04,0.01-0.07,0.02-0.11l0.14-0.57l0.22-1.34
				c0.01-0.04,0.01-0.07,0.02-0.11l0.67-2.62l0.36-2.57l-0.06-0.47c-0.02-0.12-0.01-0.25,0.02-0.37l0.21-0.96v-0.35l-0.6-0.13
				l-0.92,0.07l-0.85,0l-1.82-0.08l-0.64,0l-0.46,0.07c-0.09,0.01-0.17,0.01-0.26,0.01l-1.45-0.14l-1.02,0.21l-0.39,0.68l-0.56,3.01
				v0.6c0,0.13-0.02,0.26-0.07,0.38l-0.36,1.07l-0.2,0.96l-0.23,1.66c-0.01,0.07-0.02,0.13-0.05,0.19l-0.12,0.37l-0.06,0.44
				c0,0.03-0.01,0.06-0.02,0.09l-0.2,0.88v0.34c0,0.06,0,0.12-0.01,0.18l-0.2,1.22l0.05,0.37c0.03,0.22,0,0.45-0.1,0.64l-0.35,0.69
				v0.28c0,0.03,0,0.06,0,0.09l-0.07,0.88v0.88c0,0.11-0.02,0.22-0.05,0.32l-0.26,0.84v0.3c0,0.05,0,0.1-0.01,0.15l-0.15,1.08
				c-0.01,0.06-0.02,0.13-0.04,0.19l-0.11,0.33l-0.23,2.17l-0.08,0.49l-0.22,1.01v2.5c0,0.05,0,0.1-0.01,0.15l-0.23,1.57l-0.23,3.65
				l0,1.01c0,0.03,0,0.06,0,0.09l-0.15,1.85l-0.07,1.5c-0.03,0.58-0.51,1.04-1.09,1.04h-0.23c-0.55,0-1.01-0.4-1.08-0.95l-0.23-1.69
				l-0.23-2.1l-0.13-0.8l-0.14-0.48c-0.03-0.1-0.04-0.2-0.04-0.3v-0.49l-0.15-1.6l-0.3-1.73l-0.23-2.07l-0.14-0.54
				c-0.01-0.04-0.02-0.07-0.02-0.11l-0.15-1.08c0-0.03-0.01-0.06-0.01-0.09l-0.07-1.17l-0.22-1.25l-0.16-1.33l-0.22-1.11
				c-0.01-0.04-0.01-0.08-0.02-0.12l-0.08-0.85c0-0.03,0-0.07,0-0.1v-0.39l-0.19-0.7c-0.03-0.09-0.04-0.19-0.04-0.29V93.4l-0.2-0.88
				c-0.01-0.03-0.01-0.07-0.02-0.1l-0.22-1.63l-0.14-0.56l-1.01-5.22l-0.3-1.81l-0.29-1.02c-0.02-0.07-0.03-0.13-0.04-0.2
				l-0.08-0.85l-0.12-0.72l-0.26-0.66c-0.03-0.08-0.05-0.16-0.07-0.25l-0.04-0.29l-0.1-0.15l-0.31-0.08h-0.93l-1.14-0.07l-0.84,0.07
				c-0.05,0-0.1,0.01-0.15,0l-1.39-0.07l-0.93,0.07l-0.78,0l-1.3-0.07l-1.14,0.11l-0.41,0.72l-0.1,0.3l-0.19,0.83v0.49
				c0,0.08-0.01,0.17-0.03,0.25l-0.23,1l-0.37,2.37c-0.01,0.06-0.02,0.13-0.04,0.19l-0.12,0.37l-0.22,1.44l-0.07,0.93
				c0,0.05-0.01,0.1-0.02,0.15l-0.15,0.69c-0.02,0.07-0.04,0.14-0.07,0.21l-0.21,0.48v0.31c0,0.06-0.01,0.13-0.02,0.19l-0.38,2.15
				c-0.01,0.05-0.02,0.1-0.04,0.15l-0.12,0.37l-0.05,0.36v0.84c0,0.12-0.02,0.23-0.06,0.34l-0.23,0.69l-0.2,0.73l-0.14,0.94
				c-0.01,0.04-0.02,0.09-0.03,0.13l-0.11,0.39v0.39c0,0.15-0.03,0.29-0.09,0.43L79.5,98.2v0.39c0,0.13-0.02,0.26-0.07,0.38
				l-0.19,0.5l-0.05,0.42v1.01c0,0.07-0.01,0.14-0.02,0.21l-0.32,1.44c-0.01,0.05-0.03,0.1-0.05,0.16l-0.32,0.77l-0.3,2.76
				c-0.01,0.08-0.04,0.16-0.07,0.24l-0.3,0.72v0.24c0,0.06,0,0.12-0.01,0.18l-0.07,0.41l-0.07,0.95c-0.01,0.09-0.02,0.18-0.05,0.26
				l-0.12,0.37L77.26,111c-0.01,0.04-0.01,0.07-0.02,0.11l-0.37,1.49l-0.14,0.87c0,0.03-0.01,0.06-0.02,0.08l-0.3,1.18l-0.12,0.79
				l0.05,0.38c0.02,0.11,0.01,0.22,0,0.33l-0.08,0.46c0,0.03-0.01,0.06-0.02,0.09l-0.22,0.87l-0.07,0.48l-0.07,0.86
				c-0.01,0.16-0.06,0.31-0.14,0.45l-0.16,0.29v0.71c0,0.09-0.01,0.18-0.03,0.26l-0.12,0.49v0.4c0,0.07-0.01,0.14-0.02,0.2
				l-0.62,3.03c-0.01,0.06-0.03,0.12-0.05,0.18l-0.12,0.3l-0.27,1.45c-0.01,0.05-0.02,0.1-0.03,0.15l-0.28,1l-0.13,1.08v1.16
				c0,0.09-0.01,0.18-0.03,0.26l-0.07,0.26l0,0.01L74.25,130.74z"/>
			<path d="M128.04,132.92c-0.02,0-0.03,0-0.05,0l-1.77-0.08c-0.01,0-0.02,0-0.04,0l-0.92-0.07l-0.92,0.07
				c-0.08,0.01-0.15,0-0.23-0.01l-1.04-0.14l-0.81,0.07c-0.08,0.01-0.15,0-0.23,0l-0.55-0.07h-0.62c-0.05,0-0.1,0-0.15-0.01
				l-1.47-0.22h-0.45l-0.46,0.07c-0.05,0.01-0.1,0.01-0.15,0.01h-2.31c-0.05,0-0.1,0-0.15-0.01l-1.08-0.15
				c-0.04-0.01-0.07-0.01-0.11-0.02l-0.61-0.15c-0.49-0.12-0.83-0.56-0.83-1.06v-1.77c0-0.04,0-0.08,0.01-0.12l0.08-0.69
				c0.01-0.1,0.04-0.2,0.08-0.3l0.33-0.8l0.21-1.43l0.52-2.42v-0.48c0-0.05,0-0.1,0.01-0.15l0.39-2.58c0.02-0.1,0.05-0.2,0.1-0.29
				l0.24-0.48l0.1-0.52v-0.51c0-0.08,0.01-0.15,0.02-0.23l0.37-1.64l0.07-0.91c0-0.03,0.01-0.06,0.01-0.1l0.08-0.46
				c0.02-0.13,0.07-0.25,0.13-0.36l0.16-0.29v-1.4c0-0.08,0.01-0.15,0.02-0.23l0.22-1.03l0.07-0.57c0-0.03,0.01-0.06,0.02-0.09
				l0.29-1.54l0.16-1.01c0.01-0.04,0.02-0.09,0.03-0.13l0.37-1.39l0.07-0.42c0.01-0.06,0.02-0.11,0.04-0.17l0.25-0.76v-1.36
				c0-0.1,0.01-0.2,0.04-0.3l0.3-0.99l0.22-1.02c0.01-0.04,0.02-0.08,0.03-0.12l0.13-0.39l0.37-2.08c0.01-0.08,0.04-0.16,0.07-0.24
				l0.2-0.47l0.11-0.4l0.06-0.39v-0.38c0-0.05,0-0.1,0.01-0.15l0.31-2c0.01-0.04,0.01-0.07,0.02-0.11l0.2-0.79v-0.33
				c0-0.06,0-0.12,0.01-0.18l0.15-0.92c0.01-0.06,0.02-0.11,0.04-0.17l0.25-0.76v-0.9c0-0.05,0-0.09,0.01-0.14l0.08-0.62l0.15-1.58
				l0.16-1c0.01-0.04,0.01-0.08,0.03-0.11l0.5-1.78v-0.31c0-0.05,0-0.1,0.01-0.15l0.08-0.54c0-0.03,0.01-0.06,0.02-0.09l0.22-0.96
				l0.31-1.98c0.02-0.11,0.05-0.21,0.1-0.31l0.15-0.3l0.05-0.36l0.07-0.86c0.01-0.07,0.02-0.14,0.04-0.21l0.39-1.32
				c0.03-0.1,0.08-0.2,0.14-0.29l0.06-0.08l0.18-0.68c0.1-0.36,0.38-0.65,0.74-0.76l0.77-0.23c0.1-0.03,0.21-0.05,0.31-0.05h0.54
				c0.03,0,0.06,0,0.09,0l1.38,0.14l1.09-0.14c0.04-0.01,0.09-0.01,0.14-0.01h0.62l1.69,0.08l1.49-0.07l1.98,0c0.03,0,0.07,0,0.1,0
				l0.71,0.06l0.32-0.05c0.06-0.01,0.12-0.01,0.18-0.01h1.23c0.05,0,0.09,0,0.14,0.01l2.4,0.3h0.47c0.13,0,0.26,0.02,0.38,0.07
				l0.57,0.22l0.89,0.25c0.12,0,0.23,0.02,0.34,0.06l0.46,0.15l1.27,0.37c0.09,0.03,0.17,0.06,0.25,0.11l0.62,0.34
				c0.03,0.01,0.05,0.03,0.07,0.04l0.77,0.46c0.02,0.01,0.05,0.03,0.07,0.05l0.54,0.38l0.53,0.43c0.07,0.05,0.12,0.12,0.17,0.18
				l1.15,1.54l0.9,1.28c0.04,0.05,0.07,0.1,0.1,0.15l0.38,0.69c0.04,0.07,0.07,0.15,0.1,0.23l0.29,1.02l0.41,1.03l0.27,0.47
				c0.06,0.11,0.1,0.23,0.13,0.35l0.23,1.31c0.01,0.06,0.02,0.13,0.02,0.19v0.35l0.32,0.9c0.06,0.17,0.08,0.35,0.05,0.52l-0.06,0.41
				l0.22,2.43c0.02,0.2-0.02,0.4-0.11,0.57l-0.06,0.12l0.24,1.21c0.02,0.11,0.02,0.22,0,0.33l-0.04,0.31l0.09,0.31
				c0.04,0.15,0.05,0.3,0.03,0.45l-0.07,0.46v0.38c0,0.07-0.01,0.14-0.02,0.2l-0.21,1.13v0.44c0,0.04,0,0.09-0.01,0.13l-0.22,1.8
				v2.08c0,0.11-0.02,0.22-0.05,0.33l-0.34,1.07v0.37c0,0.08-0.01,0.15-0.02,0.22l-0.31,1.46l-0.14,1.07l-0.15,1.72
				c0,0.06-0.01,0.11-0.03,0.17l-0.15,0.62c-0.01,0.04-0.02,0.08-0.04,0.12l-0.18,0.48l-0.06,0.63c-0.01,0.06-0.02,0.13-0.04,0.19
				l-0.43,1.51l-0.07,0.89c0,0.03-0.01,0.06-0.01,0.1l-0.15,0.92c-0.01,0.09-0.04,0.17-0.07,0.25l-0.23,0.54
				c-0.01,0.03-0.03,0.06-0.04,0.09l-0.49,0.92l-0.08,0.25l-0.07,0.72c-0.01,0.12-0.04,0.24-0.1,0.36l-0.4,0.87l-0.05,0.32
				c-0.01,0.04-0.02,0.08-0.03,0.12l-0.31,1.08c-0.02,0.07-0.04,0.13-0.07,0.19l-0.51,1.02l-0.52,1.47
				c-0.02,0.04-0.03,0.09-0.05,0.13l-0.38,0.77c-0.05,0.11-0.12,0.2-0.2,0.28l-0.37,0.37l-0.02,0.12c-0.03,0.16-0.09,0.32-0.19,0.46
				l-0.76,0.99l-0.49,0.85c-0.03,0.05-0.06,0.1-0.1,0.14l-1.08,1.31c-0.05,0.06-0.11,0.12-0.17,0.16l-1.08,0.85l-0.64,0.57
				c-0.04,0.03-0.08,0.06-0.12,0.09l-0.46,0.31c-0.05,0.03-0.1,0.06-0.15,0.08l-1,0.46c-0.05,0.03-0.11,0.05-0.17,0.06l-0.66,0.18
				l-0.61,0.43c-0.1,0.07-0.21,0.12-0.33,0.16l-1.08,0.31c-0.03,0.01-0.06,0.01-0.09,0.02l-0.77,0.15l-1.19,0.15l-0.73,0.27
				c-0.12,0.04-0.25,0.07-0.37,0.07h-2.31l-0.46,0.07c-0.05,0.01-0.1,0.01-0.15,0.01h-0.31l-0.46,0.07
				C128.14,132.92,128.09,132.92,128.04,132.92z M126.33,130.66l1.65,0.07l0.44-0.06c0.05-0.01,0.1-0.01,0.15-0.01h0.31l0.46-0.07
				c0.05-0.01,0.1-0.01,0.15-0.01h2.19l0.67-0.24c0.08-0.03,0.16-0.05,0.24-0.06l1.23-0.15l0.65-0.13l0.86-0.25l0.62-0.43
				c0.1-0.07,0.22-0.13,0.34-0.16l0.76-0.21l0.84-0.39l0.33-0.22l0.64-0.57l1.03-0.82l0.95-1.15l0.49-0.85
				c0.03-0.05,0.07-0.1,0.1-0.15l0.57-0.73l0.04-0.21c0.04-0.22,0.14-0.43,0.31-0.59l0.49-0.49l0.27-0.55l0.52-1.47
				c0.02-0.04,0.03-0.09,0.05-0.13l0.49-0.99l0.26-0.92l0.07-0.4c0.02-0.1,0.04-0.19,0.09-0.28l0.38-0.83l0.06-0.66
				c0.01-0.08,0.03-0.17,0.05-0.25l0.15-0.46c0.02-0.06,0.04-0.12,0.07-0.17l0.68-1.33l0.12-0.75l0.07-0.95
				c0.01-0.07,0.02-0.15,0.04-0.22l0.43-1.52l0.07-0.67c0.01-0.09,0.03-0.19,0.06-0.27l0.21-0.56l0.12-0.47l0.15-1.68l0.16-1.2
				l0.3-1.43v-0.43c0-0.11,0.02-0.22,0.05-0.33l0.34-1.07v-1.99c0-0.05,0-0.1,0.01-0.15l0.22-1.76v-0.47c0-0.07,0.01-0.14,0.02-0.2
				l0.21-1.13v-0.36c0-0.05,0-0.1,0.01-0.15l0.04-0.31l-0.09-0.31c-0.04-0.15-0.05-0.3-0.03-0.45l0.05-0.37l-0.05-0.3l-0.22-1.03
				c-0.05-0.24-0.02-0.5,0.09-0.72l0.1-0.19l-0.21-2.21c-0.01-0.09-0.01-0.18,0.01-0.26l0.04-0.27l-0.29-0.82
				c-0.04-0.12-0.06-0.24-0.06-0.37v-0.44l-0.18-1.03l-0.21-0.37c-0.02-0.04-0.05-0.09-0.07-0.14l-0.46-1.15
				c-0.01-0.03-0.03-0.07-0.04-0.11l-0.27-0.96l-0.28-0.5l-0.25-0.31c-0.02-0.03-0.04-0.05-0.06-0.08l-0.61-0.92l-1.04-1.39
				l-0.36-0.3l-0.44-0.31l-1.3-0.75l-1.51-0.46c-0.09,0-0.19-0.02-0.28-0.04l-1.08-0.31c-0.03-0.01-0.06-0.02-0.08-0.03L139,79.21
				h-0.34c-0.05,0-0.1,0-0.14-0.01l-2.39-0.3h-1.07l-0.37,0.06c-0.09,0.02-0.19,0.02-0.28,0.01l-0.8-0.07h-1.87l-1.48,0.08
				c-0.03,0-0.07,0-0.1,0l-1.69-0.08l-0.5,0l-1.16,0.15c-0.1,0.01-0.19,0.01-0.29,0l-0.54-0.08l-1.15-0.07l-0.04,0.01l-0.07,0.26
				c-0.03,0.11-0.08,0.22-0.15,0.32l-0.06,0.09l-0.3,1.04l-0.15,1.42c-0.02,0.12-0.05,0.23-0.1,0.33l-0.16,0.31l-0.28,1.81
				c0,0.03-0.01,0.06-0.02,0.09l-0.28,1.37v0.38c0,0.1-0.01,0.2-0.04,0.3l-0.52,1.86l-0.14,0.87l-0.22,2.12v1.01
				c0,0.12-0.02,0.23-0.06,0.35l-0.28,0.84l-0.12,0.75v0.37c0,0.09-0.01,0.18-0.03,0.27l-0.22,0.87l-0.29,1.87v0.39
				c0,0.05,0,0.1-0.01,0.16l-0.08,0.54c-0.01,0.05-0.02,0.1-0.03,0.14l-0.15,0.54c-0.01,0.04-0.03,0.09-0.05,0.13l-0.18,0.42
				l-0.36,2.03c-0.01,0.05-0.02,0.1-0.04,0.15l-0.13,0.4l-0.22,1.02c-0.01,0.04-0.02,0.08-0.03,0.12l-0.25,0.81v1.39
				c0,0.12-0.02,0.23-0.06,0.35l-0.28,0.84l-0.06,0.38c0,0.03-0.01,0.06-0.02,0.09l-0.37,1.43l-0.22,1.46l-0.23,1.1l-0.07,0.57
				c0,0.03-0.01,0.06-0.02,0.09l-0.21,0.96v1.58c0,0.19-0.05,0.38-0.14,0.54l-0.21,0.37l-0.04,0.22l-0.07,0.95
				c0,0.06-0.01,0.12-0.03,0.18l-0.35,1.54v0.5c0,0.07-0.01,0.14-0.02,0.21l-0.15,0.77c-0.02,0.1-0.05,0.19-0.09,0.27l-0.24,0.48
				l-0.34,2.27v0.54c0,0.09-0.01,0.18-0.03,0.26l-0.6,2.84l-0.15,1.05c-0.01,0.09-0.04,0.18-0.07,0.27l-0.32,0.78l-0.05,0.48v0.83
				l0.68,0.1h2.15l0.46-0.07c0.05-0.01,0.1-0.01,0.15-0.01h0.62c0.06,0,0.12,0,0.18,0.01l1.44,0.22h0.62c0.05,0,0.09,0,0.14,0.01
				l0.5,0.06l0.81-0.07c0.08-0.01,0.16,0,0.23,0.01l1.04,0.14l0.89-0.07c0.06,0,0.11,0,0.17,0L126.33,130.66z M130.04,122.46h-2.31
				c-0.1,0-0.2-0.01-0.3-0.04l-1.08-0.31c-0.56-0.16-0.89-0.72-0.77-1.29l0.15-0.69l0.21-1.2l0.07-1.1l0.16-1.23
				c0.01-0.05,0.02-0.1,0.03-0.15l0.29-1.01l0.07-0.47l0.53-2.49v-0.35c0-0.13,0.02-0.25,0.06-0.37l0.35-0.99l0.05-0.28v-0.91
				c0-0.06,0-0.11,0.01-0.17l0.31-2c0.01-0.05,0.02-0.09,0.03-0.13l0.09-0.3l-0.04-0.22c-0.03-0.16-0.02-0.32,0.03-0.48l0.15-0.54
				l0.19-0.89v-0.35c0-0.08,0.01-0.15,0.02-0.23l0.23-1.08c0.01-0.04,0.02-0.08,0.03-0.12l0.13-0.4l0.19-0.9v-0.42
				c0-0.05,0-0.09,0.01-0.13l0.15-1.23c0-0.03,0.01-0.06,0.02-0.09l0.21-0.96v-0.35c0-0.17,0.04-0.34,0.12-0.49l0.15-0.29l0.05-0.36
				v-0.47c0-0.1,0.01-0.2,0.04-0.3l0.14-0.48l0.07-0.4l0.14-1.61l0.32-2.15c0.01-0.04,0.02-0.09,0.03-0.13l0.3-1.03l0.22-1.11
				c0.01-0.03,0.01-0.06,0.02-0.09l0.11-0.39v-0.31c0-0.15,0.03-0.29,0.09-0.43l0.44-1.11c0.14-0.39,0.49-0.66,0.9-0.7l0.69-0.08
				c0.07-0.01,0.14-0.01,0.2,0l1,0.08l1.28,0.16c0.06,0.01,0.12,0.02,0.17,0.04l1.31,0.38c0.14,0.04,0.26,0.11,0.37,0.2l0.86,0.71
				c0.11,0.09,0.2,0.2,0.26,0.32l0.54,1c0.03,0.05,0.05,0.1,0.07,0.15l0.46,1.31c0.03,0.07,0.04,0.15,0.05,0.23l0.08,0.62l0.16,2.13
				c0,0.04,0,0.08,0,0.12l-0.08,2.19l0.07,1.57c0,0.05,0,0.1,0,0.16l-0.24,2.15l-0.22,1.51v1c0,0.13-0.02,0.25-0.06,0.37l-0.37,1.03
				l-0.13,0.51l-0.61,4.25c-0.01,0.04-0.01,0.07-0.02,0.11l-0.23,0.92c-0.01,0.03-0.01,0.05-0.02,0.08l-0.29,0.8l-0.06,0.35
				c-0.01,0.05-0.02,0.1-0.03,0.14l-0.29,0.95l-0.22,1.03l-0.24,0.9l-0.47,1.5l-0.41,1.06c-0.01,0.03-0.03,0.06-0.04,0.1l-0.36,0.73
				l-0.29,0.73c-0.02,0.05-0.04,0.09-0.07,0.14l-0.51,0.95c-0.04,0.08-0.09,0.16-0.15,0.23l-0.54,0.62l-0.67,0.67
				c-0.03,0.03-0.06,0.06-0.09,0.08l-0.39,0.31c-0.05,0.04-0.1,0.07-0.16,0.11l-1.5,0.79c-0.06,0.03-0.11,0.05-0.17,0.07l-0.77,0.23
				C130.25,122.44,130.15,122.46,130.04,122.46z M127.93,120.27h1.95l0.53-0.16l1.26-0.66l0.26-0.21l0.57-0.57l0.39-0.45l0.47-0.86
				l0.28-0.7c0.01-0.03,0.02-0.06,0.04-0.08l0.36-0.72l0.37-0.95l0.66-2.2l0.22-1.02c0.01-0.03,0.01-0.06,0.02-0.09l0.29-0.93
				l0.07-0.39c0.01-0.08,0.03-0.15,0.06-0.23l0.27-0.74l0.21-0.83l0.61-4.25c0.01-0.04,0.01-0.07,0.02-0.11l0.15-0.62
				c0.01-0.03,0.02-0.07,0.03-0.1l0.32-0.9v-0.89c0-0.05,0-0.1,0.01-0.15l0.31-2.1l0.14-1.46l-0.07-1.54c0-0.03,0-0.06,0-0.09
				l0.07-2.17l-0.21-2.46l-0.39-1.12l-0.4-0.74l-0.5-0.41l-1.02-0.3l-1.92-0.2l-0.15,0.35v0.24c0,0.1-0.01,0.2-0.04,0.3l-0.14,0.5
				l-0.22,1.11c-0.01,0.03-0.01,0.06-0.02,0.09l-0.29,1.01l-0.3,2l-0.24,2.18c-0.01,0.04-0.02,0.08-0.03,0.12l-0.11,0.39v0.39
				c0,0.05,0,0.09-0.01,0.14l-0.08,0.62c-0.02,0.12-0.05,0.24-0.11,0.35l-0.12,0.23v0.2c0,0.08-0.01,0.15-0.02,0.23l-0.22,1.03
				l-0.14,1.12v0.47c0,0.08-0.01,0.15-0.02,0.23l-0.23,1.08c-0.01,0.04-0.02,0.08-0.03,0.12l-0.13,0.4l-0.19,0.9v0.35
				c0,0.08-0.01,0.15-0.02,0.23l-0.34,1.45l0.04,0.22c0.03,0.16,0.02,0.32-0.03,0.48l-0.13,0.47l-0.28,1.85v0.92
				c0,0.06,0,0.12-0.02,0.18l-0.08,0.46c-0.01,0.06-0.03,0.13-0.05,0.19l-0.32,0.9v0.27c0,0.07-0.01,0.14-0.02,0.21l-0.61,3.02
				c-0.01,0.05-0.02,0.1-0.03,0.15l-0.29,1l-0.14,1.08l-0.07,1.08c0,0.04-0.01,0.08-0.01,0.12L127.93,120.27z"/>
		</g>
		<g>
			<path d="M43.03,136.34l-0.39-0.23v-1.23l0.54-0.23l2.16,0.08l0.92-0.15h0.77l0.54,0.08h1.23l1.46-0.08h1l0.54,0.08l1.31,0.08
				h1.23l0.54-0.08h0.69l0.85,0.08h1.85l4.31-0.15l1.38-0.08h2.85l0.92-0.38l0.61-0.69l0.15-0.85l0.08-0.85l0.15-0.69l0.15-0.62
				v-0.62l0.15-0.62l0.15-0.69v-1.08l0.08-1l0.15-0.31l0.69-0.08h0.39l0.54,0.31l0.08,1.15l0.08,1.46l-0.23,1.08l-0.08,0.69v1.23
				l-0.23,0.62l-0.08,0.69l-0.08,0.85l-0.23,0.92l-0.54,0.85l-1.08,0.38h-2.77l-1.46,0.08l-4.23,0.08h-1.85l-0.77-0.08H56.8
				l-0.62,0.08h-1.15l-1.39-0.08l-0.46-0.08l-0.92,0.08h-4.23l-0.69,0.08l-1,0.08L43.03,136.34z M47.95,101.63l-0.46-0.31l-0.23-1
				l0.38-0.15h2.69l0.62,0.08h1.69l1.23-0.15l0.62-0.46l0.23-0.62v-0.54l0.15-0.77l0.15-1.15l0.23-1.23l0.31-1l0.08-0.69l0.23-0.85
				l0.15-0.85l0.38-0.69l0.31-0.54l0.46-0.38l0.54-0.31l0.54-0.23h0.54l0.62,0.08l0.38,0.23l0.38,0.62l0.08,0.77l-0.54-0.08
				l-0.46-0.08l-0.77,0.15l-0.38,0.46l-0.31,0.77l-0.23,0.77l-0.23,0.85l-0.15,0.85l-0.08,0.69l-0.23,1l-0.23,1.23l-0.15,1.15
				l-0.15,0.77l-0.15,0.38l-0.31,0.62l-0.46,0.38l-0.69,0.15l-1.77,0.15l-0.69-0.08l-3.31,0.08L47.95,101.63z M57.11,121.41
				l0.15-0.38l0.54-0.69l0.46-0.54l0.31-0.38l0.62-0.62l0.62-0.54l1.23-1.54l1.08-1.15l0.54-0.77l0.69-0.77l0.61-0.77l0.39-0.54
				l0.23-0.46l0.62-0.77l0.77-1l0.38-0.62l0.62-0.69l0.62-0.85l0.54-0.69l0.23-0.54l0.62-0.69l0.39-0.69l0.31-0.54l0.38-0.69
				l0.31-0.77l0.46-0.69l0.15-0.62l0.46-0.77l0.31-0.69l0.23-0.54l0.31-0.62l0.08-0.54l0.23-0.69l0.23-0.77v-0.69l0.39-0.92V95.4
				l0.15-0.92l0.15-0.85l0.08-0.54v-0.77l0.15-0.85l-0.08-0.92l0.08-1v-1.08l-0.15-0.85l-0.31-1.08l-0.31-0.92l-0.15-0.85
				l-0.31-0.69l0.38-0.08l0.31,0.31l0.54,0.62l0.77,1.39l0.31,0.62l0.15,0.92l0.23,0.77l0.08,0.54v0.85l0.15,1.08l-0.15,1l0.23,0.92
				l-0.23,0.85l0.08,0.77l0.08,0.54l-0.15,0.85l-0.23,0.92v0.77l-0.31,0.92l-0.08,0.69l-0.46,0.77l-0.23,0.69l-0.23,0.54l-0.15,0.62
				l-0.31,0.54l-0.23,0.69l-0.69,1.39l-0.38,0.69l-0.46,0.77l-0.39,0.69l-0.31,0.54l-0.38,0.62l-0.54,0.69l-0.39,0.62l-0.62,0.69
				l-0.46,0.85l-0.69,0.69l-1.23,1.62l-0.62,0.77l-0.23,0.46l-0.54,0.54l-0.54,0.77l-0.77,0.77l-0.46,0.77l-0.46,0.54l-0.54,0.62
				l-0.61,0.69l-0.62,0.77l-0.54,0.54l-0.54,0.62l-0.39,0.46l-0.23,0.23l-0.77-0.08l-0.31,0.08h-1L57.11,121.41z"/>
			<path d="M77.14,136.18l-0.39-0.92l0.15-0.46h7.62l0.85-0.31l0.23-0.77l0.31-0.92l0.23-1.39l0.15-0.46v-1l0.08-0.54l0.23-1
				l0.31-2.23l0.15-0.54l0.08-0.46l0.15-1.08l0.31-1.54l0.31-1.15l0.15-1.08l0.08-0.46l-0.08-0.54l0.15-0.54l0.23-0.92l-0.15-0.54
				l0.23-1l0.15-0.46l0.38-3.15h0.31l0.15,1.77l0.23,2l0.15,2.08l-0.08,0.92v0.92l-0.15,0.54v0.54l-0.08,0.46l-0.15,1.08l-0.15,1
				l-0.31,1.54l-0.15,1.08l-0.08,0.46l-0.08,0.62l-0.31,2.23l-0.23,1l-0.08,0.54l-0.15,1l-0.15,0.46l-0.23,1.39l-0.23,0.92
				l-0.23,0.77l-0.62,0.31h-8.16L77.14,136.18z M99.3,99.02l-0.23-0.85l-0.23-0.69l-0.15-1.38l-0.46-1.85v-0.69l-0.23-0.85
				l-0.23-1.23l-0.31-1.23v-1.23l-0.39-1.39l-0.15-1.54l-0.15-1.15l-0.31-0.92l-0.15-0.92l0.62-0.62l0.85,0.46l0.08,0.62l0.31,0.69
				l0.23,0.85l0.08,0.85l0.31,1l0.23,1.46l0.15,1.54l0.15,1.23l0.31,1.23l0.15,0.92l0.23,0.54l0.08,0.85l0.08,0.38l-0.15,1.23
				l-0.08,1.15l-0.23,1.62L99.3,99.02z M97.76,136.03l-0.54-1.08l0.31-0.38l1.46,0.08l2.46-0.08l1.62,0.08l0.77-0.08l0.69-0.08
				l0.92-0.23l0.85-0.46l0.69-1.23l0.46-1.69l0.23-1.31l-0.08-0.62l0.23-0.62l0.23-0.92l0.15-1.15l0.15-1l0.31-0.77v-0.92l0.15-1
				l0.46-1.69l0.23-0.77l0.38-0.85l0.08-1l0.31-0.92l-0.15-0.62l0.15-0.46l0.08-0.54v-0.54l0.23-0.62l0.08-0.77l0.31-0.85l0.08-0.77
				l0.08-0.69l0.23-0.62l-0.08-0.54l0.08-0.46l0.08-0.54l0.15-0.54l0.08-0.62l0.23-0.77l0.31-1.85l0.08-0.77l0.23-0.77l0.15-0.69
				l0.23-0.62v-0.77l0.15-1.08l0.31-1.46l0.15-1.15v-0.77l0.23-0.62v-0.62l0.31-0.85l0.15-1.08l0.31-1.08l0.15-0.69v-0.54l0.23-0.54
				v-0.62l0.08-0.62l0.15-0.77l0.15-0.85l0.23-0.92l0.15-1l0.31-1.15l0.23-1.69v-1.31l0.15-0.38h0.08l0.85,0.08l0.69,0.23l0.31,0.46
				l0.15,0.62l-0.15,0.85l-0.23,0.85L118,86.4v1.39l-0.38,1.46l-0.39,1.31l-0.31,1.15l-0.15,1l-0.08,1.08l-0.23,1.46l-0.31,1.23
				l-0.31,0.92l-0.08,0.69l-0.08,0.54l-0.23,0.77l-0.08,0.77l-0.15,1.46l-0.38,1.46v0.77l-0.08,0.69l-0.08,0.62l-0.23,0.77
				l-0.31,0.77l-0.15,0.77l-0.08,1.08l-0.15,0.85l-0.15,0.62v0.62l-0.15,0.46l-0.15,0.54l-0.08,0.46v1.23l-0.46,1.54l-0.23,0.85
				l-0.08,0.69l-0.15,0.62l0.08,0.46l-0.15,0.54l-0.08,0.46l-0.08,0.77l-0.31,1.08l-0.15,0.92l-0.23,0.69l-0.15,0.85l-0.38,0.85
				v0.92l-0.15,1l-0.31,1.69l-0.23,1.15l-0.31,1.08v0.77l-0.08,0.46l-0.38,0.77l-0.23,1.77l-0.62,1.69l-0.54,0.77l-1,0.31l-1,0.15
				l-0.46,0.08h-6.69L97.76,136.03z"/>
			<path d="M127.23,136.41l-0.92,0.08l-0.62-0.08H125l-1.62-0.15l-0.46-0.08h-0.62l-0.54,0.08l-1.77-0.08l-1.08-0.08l-0.62-0.15
				v-1.15l0.31-0.31h1.77l0.54-0.08h0.61l0.46,0.08l1.08,0.15h0.69l0.62,0.08l0.92-0.08l1.15,0.15l1-0.08l1,0.08l1.77,0.08
				l0.54-0.08h0.38l0.54-0.08h1.38l1-0.08l0.85-0.31l1.23-0.15l0.77-0.15l1.08-0.31l0.77-0.54l0.85-0.23l0.92-0.54l0.46-0.31
				l0.77-0.62l1-0.85l1.08-1.23l0.62-0.85l0.46-0.46l0.31-0.62l0.15-0.46l0.54-0.62l0.38-0.77l0.54-1.54l0.54-1.08l0.31-1.08
				l0.08-0.46l0.46-1l0.08-0.85l0.15-0.46l0.54-1l0.23-0.54l0.15-0.92l0.08-1l0.46-1.62l0.08-0.77l0.23-0.62l0.15-0.62l0.15-1.77
				l0.15-1.15l0.31-1.46v-0.54l0.38-1.23v-2.15l0.08-0.54l0.15-1.31v-0.54l0.23-1.23v-0.46l0.15-0.54v-0.54l0.08-0.54l-0.08-0.46
				l-0.08-0.92l0.08-0.62l-0.08-1l-0.15-1.54l0.08-0.54l-0.31-1.08v-1.62l-0.46-2.31l-0.61-1.54l-0.31-0.69L150,85.4l-0.23-0.46
				l-0.54-0.85l0.77-0.23l0.46,0.54l0.46,0.62l0.54,0.85l0.69,1.39l0.23,0.54l0.31,1l0.31,1.08l0.15,1.15l0.15,0.62l0.08,1.31v0.54
				l0.38,1.08l-0.08,0.54l0.15,1.54l0.08,1l-0.23,0.46l0.08,1.08l0.08,0.46l-0.15,0.54l0.15,0.54l-0.08,0.54v0.46l-0.23,1.23v0.54
				l-0.15,1.31l-0.08,0.54v2.15l-0.38,1.23v0.54l-0.31,1.46l-0.15,1.15l-0.15,1.77l-0.15,0.62l-0.23,0.62l-0.08,0.77l-0.46,1.62
				l-0.08,1l-0.15,0.92l-0.23,0.54l-0.54,1l-0.15,0.46l-0.08,0.85l-0.46,1l-0.08,0.46l-0.31,1.08l-0.54,1.08l-0.54,1.15l-0.46,0.85
				l-0.54,0.85l-0.23,0.46l-0.46,0.46l-0.31,0.54l-0.69,0.77l-1.15,1.23l-0.92,0.85l-0.69,0.54l-0.39,0.31l-0.92,0.46l-0.62,0.38
				l-0.92,0.54l-1.08,0.38l-0.77,0.31l-1.23,0.15l-0.85,0.31l-1,0.08h-0.62l-0.77,0.08l-0.54,0.08h-0.38l-0.54,0.08l-1.77,0.08
				l-1-0.08l-1,0.08L127.23,136.41z M129.23,121.18l0.31-1.23l0.08-0.62l0.15-0.69l0.08-0.54l0.31-1.39l0.23-1.15v-0.46l0.39-1.08
				l0.08-0.46v-1l0.31-2l0.15-0.54l-0.08-0.46l0.15-0.54l0.23-1.08v-0.46l0.23-1.08l0.15-0.46l0.23-1.08v-0.54l0.15-1.23l0.23-1.08
				v-0.46l0.23-0.46l0.08-0.62v-0.54l0.15-0.54l0.08-0.46l0.15-1.69l0.15-1.08l0.15-1l0.31-1.08l0.23-1.15l0.15-0.54v-0.46
				l0.23-0.54l0.23-0.62h0.69l0.85,0.08l0.46,0.15l0.46,0.23l0.23,0.31l0.23,0.46v0.31h-1l-0.31,0.15l-0.08,0.46l-0.23,0.54v0.46
				l-0.15,0.54l-0.38,1.15l-0.15,1.08l-0.15,1l-0.15,1.08l-0.15,1.69l-0.08,0.46l-0.15,0.54v0.54l-0.08,0.62l-0.23,0.46v0.46
				l-0.23,1.08l-0.15,1.23v0.54l-0.23,1.08l-0.15,0.46l-0.23,1.08v0.46l-0.39,1.08l-0.15,0.54l0.08,0.46l-0.15,0.54l-0.31,2v1
				l-0.08,0.46l-0.23,1.08v0.46l-0.23,1.15l-0.15,0.85l-0.08,0.54l-0.08,0.31l-0.08,0.23l-0.15,0.77l-0.54,0.23l-0.69,0.08
				L129.23,121.18z"/>
		</g>
	</g>
	<rect x="85.57" y="67.13" width="4.73" height="4.73"/>
	<rect x="92.85" y="67.13" width="4.73" height="4.73"/>
	<rect x="100.13" y="67.13" width="4.73" height="4.73"/>
	<rect x="85.57" y="29.08" width="4.73" height="4.73"/>
	<rect x="92.85" y="29.08" width="4.73" height="4.73"/>
	<rect x="100.13" y="29.08" width="4.73" height="4.73"/>
</g>
</svg>
