<?xml version="1.0" encoding="utf-8"?>
<!-- Generator: Adobe Illustrator 24.2.1, SVG Export Plug-In . SVG Version: 6.00 Build 0)  -->
<svg version="1.1" id="レイヤー_1" xmlns="http://www.w3.org/2000/svg" xmlns:xlink="http://www.w3.org/1999/xlink" x="0px"
	 y="0px" viewBox="0 0 200 200" style="enable-background:new 0 0 200 200;" xml:space="preserve">
<style type="text/css">
	.st0{fill:#231815;}
</style>
<g>
	<g>
		<g>
			<path class="st0" d="M42.58,90.41c2.98,1.52,4.34,3.75,4.34,6.08c0.06,4.56-4.9,9.56-11.85,10.32c-1.86,0.22-3.85,0.11-5.96-0.38
				c-5.71-1.36-7.76-4.73-7.45-7.55c0.31-3.1,3.6-5.54,8-3.75c2.73,1.09-2.23,3.26-0.5,5.32c2.48,2.93,11.23-2.34,11.23-4.78
				c0-0.81-6.39-2.39-9-3.53c-7.51-3.42-7.45-7.22-2.92-12.49c5.58-6.52,11.73-9.34,16.51-9.4c4.65-0.05,7.94,2.61,7.94,7.06
				c0,3.53-5.65,15.32-10.98,8.8c-1.06-1.25-0.87-1.85,0.99-3.26c3.54-2.72,3.6-6.41,3.54-6.19c-3.91,1.3-6.95,3.31-8.81,5
				c-8.01,7.12-0.19,6.08,4.84,8.69L42.58,90.41z"/>
			<path class="st0" d="M74.22,93.29c-5.09,13.96-5.83,15.48-9.87,13.69c-2.92-1.36,0.87-7.93,2.11-10.59
				c0.12-0.22-7.51,10.7-13.03,11.14c-1.68,0.11-3.1-0.71-4.16-3.04c-0.37-0.87-0.5-2.06-0.37-3.48
				c0.75-8.53,10.05-24.77,19.11-24.77c6.89,0,8,6.41,6.7,7.01c-1.49,0.71-3.1-3.69-8.56,0.22c-2.54,1.79-7.32,9.02-8.56,13.96
				c-0.56,2.28,12.29-17.98,16.88-12.44C76.95,87.1,75.28,90.41,74.22,93.29z"/>
			<path class="st0" d="M88,84.11c7.01-8.09,11.91-10.92,14.89-10.81c3.1,0.11,4.1,3.48,3.16,7.44c-1.3,5.7-10.49,26.02-10.74,26.29
				c-0.62,0.71-6.58,0.11-6.14-2.77c0.25-1.58,10.18-24.5,10.18-24.5c-0.31,0-5.59,6.46-8.25,9.51c-8.19,9.34-12.16,17.6-13.9,17.6
				c-1.37,0-3.72-2.12-3.72-4.4c0-0.81,9.49-27.21,11.91-27.21c0.37,0,3.54,0.38,3.54,2.99c0,3.53-4.28,9.67-0.93,5.81V84.11z"/>
			<path class="st0" d="M135.47,72.76c1.68,0.27,2.36,1.3,2.36,2.93c0.06,3.8-3.54,10.81-7.2,19.45
				c-5.65,13.25-5.52,12.44-6.52,12.44c-6.83,0-3.79-9.89-3.23-10.38c-0.56,0.43-6.33,8.15-11.36,7.77
				c-5.96-0.43-6.27-7.5-4.34-12.66c0.99-2.72,6.39-14.78,7.26-15.59c0.5-0.43,6.33-1.3,5.9,3.69c-0.25,3.1-6.95,15.16-5.46,15.43
				c0.93,0.16,5.15-4.29,16.26-18.8c1.92-2.55,3.04-4.83,6.27-4.29H135.47z"/>
			<path class="st0" d="M146.33,85.36c5.58-4.45,9.49-5.7,11.98-5.49c4.1,0.38,4.41,4.78,2.17,5.38
				c-5.46,1.52-11.36,6.68-13.28,8.31c3.04,0.76,6.02,1.36,8.87,3.69c2.48,2.12,2.67,3.04,0.93,4.67
				c-3.66,3.37-3.29-1.58-15.82-2.34c-0.93,2.93-1.43,7.01-1.99,7.5c-0.56,0.49-3.1,0.6-4.34,0.22c-1.74-0.54-2.79-1.52-2.98-3.42
				c-0.31-3.2,1.86-9.07,7.32-20.48c1.24-2.61,5.46-9.83,6.08-10.43c1.68-1.68,6.02,0.71,6.02,2.28c0,1.09-3.29,6.57-4.9,10.27
				L146.33,85.36z"/>
			<path class="st0" d="M168.12,78.57c3.79-0.65,5.21,0.81,5.34,3.31c0.19,4.89-4.65,13.8-7.45,19.66
				c-2.98,6.19-3.41,6.68-4.72,5.43c-1.55-1.41-2.17-3.59-2.17-6.03c-0.06-8.91,7.88-22.16,9.06-22.33L168.12,78.57z M175.31,64.72
				c2.36,0,3.17,1.74,3.04,3.91c-0.25,4.56-4.72,11.08-8.44,7.82c-3.41-2.99,0.37-11.79,5.34-11.79L175.31,64.72z"/>
		</g>
	</g>
	<g>
		<g>
			<path class="st0" d="M69.63,53.37l-0.74,1c-0.34-0.25-1.21-0.65-2.24-0.65c-1.17,0-2.1,0.42-2.1,1.2c0,0.76,0.91,1.18,2.3,1.47
				c1.64,0.35,3.06,0.9,3.06,2.52c0,1.91-2,2.65-4.05,2.65c-1.72,0-2.98-0.58-3.45-0.93l0.77-1.12c0.4,0.35,1.4,0.85,2.62,0.85
				c1.37,0,2.35-0.58,2.35-1.45c0-0.96-1.06-1.27-2.27-1.54c-1.52-0.33-3.03-0.97-3.03-2.49c0-1.41,1.7-2.29,3.68-2.29
				C67.94,52.58,69.19,53.07,69.63,53.37z"/>
			<path class="st0" d="M80.44,59.6c-0.16,0.54-1.51,1.95-3.69,1.95c-2.66,0-4.82-1.73-4.82-4.48c0-2.74,2.16-4.49,4.82-4.49
				c2.16,0,3.51,1.29,3.68,1.91v-1.66h1.73v8.47h-1.72V59.6z M77.08,60.25c1.91,0,3.31-1.25,3.31-3.18c0-1.92-1.4-3.19-3.31-3.19
				c-1.74,0-3.42,1.23-3.42,3.19C73.66,59.03,75.33,60.25,77.08,60.25z"/>
			<path class="st0" d="M85.9,52.83l3.32,7.04l3.31-7.04h1.87l-4.16,8.47h-2.06l-4.17-8.47H85.9z"/>
			<path class="st0" d="M101.09,60.33c1.85,0,2.83-0.91,3.18-1.47l0.95,0.97c-0.82,1.06-2,1.71-4.24,1.71c-3.11,0-5-1.92-5-4.58
				c0-2.48,1.79-4.39,4.87-4.39c2.82,0,4.64,1.65,4.64,4.22c0,0.12-0.01,0.46-0.04,0.56h-7.74C97.74,58.97,98.85,60.33,101.09,60.33
				z M100.88,53.8c-2.22,0-2.99,1.34-3.09,2.32h5.95C103.71,55.2,103,53.8,100.88,53.8z"/>
			<path class="st0" d="M114.52,52.83v-3.48h1.74v3.48h2.56v1.34h-2.56v4.53c0,1.06,0.47,1.5,1.17,1.5c0.61,0,0.97-0.28,1.03-0.34
				l0.73,1.14c-0.14,0.12-0.93,0.56-2.14,0.56c-1.43,0-2.52-0.74-2.52-2.44v-4.94h-1.94v-1.34H114.52z"/>
			<path class="st0" d="M130.16,55.99v5.31h-1.77v-4.98c0-1.76-1.03-2.52-2.5-2.52c-1.47,0-2.97,1.21-2.97,2.8v4.71h-1.79v-14.2
				h1.79v7.29c0.16-0.71,1.63-1.81,3.38-1.81C128.17,52.58,130.16,53.59,130.16,55.99z"/>
			<path class="st0" d="M137.72,60.33c1.85,0,2.83-0.91,3.18-1.47l0.95,0.97c-0.82,1.06-2,1.71-4.24,1.71c-3.11,0-5-1.92-5-4.58
				c0-2.48,1.79-4.39,4.87-4.39c2.82,0,4.64,1.65,4.64,4.22c0,0.12-0.01,0.46-0.04,0.56h-7.74
				C134.38,58.97,135.48,60.33,137.72,60.33z M137.51,53.8c-2.22,0-2.99,1.34-3.09,2.32h5.95C140.34,55.2,139.63,53.8,137.51,53.8z"
				/>
		</g>
	</g>
	<g>
		<g>
			<path class="st0" d="M70.45,124.85c-0.25,0.37-0.44,0.74-0.74,1.06c-1.55,2.11-3.1,4.22-4.77,6.34
				c-2.89,3.75-6.26,7.23-9.8,10.61c-0.52,0.53-1.16,1-1.79,1.48c-0.83,0.58-1.65,0.74-2.58,0.58c-1.98-0.37-3.07-1.32-2.97-3.43
				c0.34-4.01,1.45-7.92,3.69-11.77c1.18-2.06,2.64-4.01,3.98-6.02c0.41-0.58,0.81-1.11,1.05-1.69c-0.45-0.16-0.62,0.11-0.77,0.26
				c-0.97,1-1.95,2.01-2.94,3.06c-2.34,2.48-4.64,5.02-6.92,7.5l-1.78,1.74c-0.37,0.37-0.82,0.53-1.3,0.47
				c-1-0.16-1.62-0.69-1.63-1.58c0.04-0.85,0.08-1.69,0.36-2.53c0.57-2.06,1.21-4.12,2.02-6.18c0.24-0.63,0.8-1.37,0.26-2.01
				c-0.78,0.32-1.21,0.95-1.73,1.48c-2.77,2.8-5.21,5.81-7.54,8.87c-0.55,0.69-0.88,1.48-1.15,2.22c-0.36,0.95-0.66,1.9-1.02,2.85
				c-0.4,1.16-0.98,2.27-1.67,3.38c-0.33,0.48-0.71,0.9-1.21,1.27c-0.78,0.63-1.6,0.79-2.54,0.69c-0.47-0.05-0.55-0.58-1.06-0.47
				c-0.49,0.05-0.85,0-1.08-0.37c-0.14-0.21-0.37-0.26-0.68-0.21c-0.68,0.11-0.96-0.32-1.19-0.74c-0.26-0.53-0.33-1.11-0.27-1.74
				c0.11-1.53,0.75-3.01,1.34-4.49c1.14-3.12,2.26-6.18,3.46-9.29c0.7-1.79,1.3-3.64,2.24-5.44c0.39-0.79,0.84-1.58,1.47-2.32
				c0.25-0.37,0.55-0.69,1.06-0.79c0.25-0.05,0.41,0.05,0.38,0.21c-0.05,0.26-0.17,0.58-0.34,0.85c-0.95,1.48-1.42,3.01-2.01,4.54
				c-1.08,3.12-2.27,6.23-3.4,9.29c-0.58,1.48-1.24,3.01-1.76,4.49c-0.37,1-0.62,2.01-0.69,3.01c-0.01,0.37,0.03,0.79,0.54,0.95
				c0.55-0.69,0.63-1.42,0.88-2.11l5.36-15.15c0.64-1.8,1.47-3.59,2.24-5.44c0.2-0.42,0.37-0.37,1.3-0.47
				c0.87-0.16,1.5,0.05,2.02,0.47c0.51,0.48,0.7,1.06,0.75,1.74c0.01,1.53-0.17,3.12-0.53,4.7c-0.24,0.95-0.48,1.9-0.66,2.85
				c-0.03,0.16-0.13,0.37,0.11,0.37c0.18,0,0.39-0.16,0.47-0.26c0.69-0.79,1.33-1.58,2.01-2.32c1.49-1.79,3.07-3.43,4.82-5.02
				c1.03-0.95,2.04-1.21,3.47-0.48c0.55,0.26,0.82,0.74,0.89,1.32c0.11,1-0.07,1.95-0.45,3.01l-2.27,5.91
				c-0.08,0.11-0.16,0.21-0.18,0.32c-0.15,0.47-0.57,1.11-0.24,1.27c0.61,0.26,0.94-0.47,1.31-0.84c2.15-2.11,4.13-4.28,6.06-6.49
				c1.64-1.95,3.41-3.96,5.32-5.76c0.66-0.63,1.4-1,2.29-0.95c1.43,0.11,2.26,0.79,2.2,2.06c-0.02,1.37-0.41,2.8-0.85,4.17
				c-0.64,2.11-1.47,4.22-2.17,6.34c-0.77,2.16-2.01,4.22-3.08,6.34L54,140.59c-0.2,0.42-0.46,0.85-0.42,1.27
				c0.71,0.05,1.05-0.42,1.41-0.74c2.51-2.11,4.77-4.44,6.8-6.87c2.28-2.8,4.51-5.65,6.74-8.45l1.16-1.32
				c0.15-0.16,0.46-0.21,0.68-0.11C70.58,124.48,70.54,124.69,70.45,124.85z M31.34,127.81c-1.13,2.11-1.78,3.96-2.48,5.76
				c-0.55,1.32-1.05,2.64-1.55,4.01c-0.14,0.42-0.22,0.84-0.31,1.32c-0.02,0.11,0.08,0.21,0.13,0.26c0.06,0,0.26-0.11,0.33-0.16
				c0.17-0.26,0.4-0.53,0.45-0.79c0.89-2.43,1.83-4.86,2.59-7.29C30.8,130.03,31.33,129.13,31.34,127.81z M45.01,123.48
				c-0.22,0.21-0.36,0.32-0.46,0.53c-0.61,1.64-1.29,3.27-1.79,4.96c-0.32,1.06-0.81,2.06-0.85,3.22c0.15-0.16,0.22-0.21,0.24-0.32
				l2.1-5.65C44.61,125.27,44.89,124.43,45.01,123.48z M45.34,122.37c-0.37,0.37-0.31,0.69-0.25,1
				C45.33,123.06,45.57,122.79,45.34,122.37z M49.85,140.53c0.38-1.69,1-3.33,1.62-5.02c1.18-3.33,2.99-6.49,4.8-9.66
				c0.83-1.48,1.58-2.9,2.39-4.33c0.27-0.47,0.49-1,0.52-1.48c0.02-0.11-0.08-0.21-0.19-0.26c-0.06,0-0.26,0.11-0.27,0.16
				c-1.25,2.11-2.43,4.22-3.68,6.34c-0.97,1.64-1.95,3.27-2.87,4.91c-1.4,2.59-2.33,5.28-2.9,7.97l-0.38,2.01
				c-0.05,0.26-0.04,0.53,0.16,0.74l0.16,0.11c0.11,0.05,0.24,0,0.27-0.16C49.62,141.43,49.77,140.96,49.85,140.53z M53.94,133.3
				c1.31-2.75,2.73-5.49,4.04-8.24c0.46-0.84,0.92-1.69,1.1-2.59c-0.34,0.21-0.52,0.53-0.7,0.85c-2.14,3.96-4.28,7.92-6.01,11.93
				c-0.63,1.42-1.1,2.9-1.61,4.33c-0.3,0.95-0.31,1-0.06,1.9l0.32-0.74C51.85,138.26,52.74,135.78,53.94,133.3z M59.22,122.05
				c-0.02,0.11-0.04,0.21-0.11,0.26l0.15-0.16C59.26,122.16,59.21,122.1,59.22,122.05z"/>
			<path class="st0" d="M66.18,141.27C65.3,140.8,64.79,140,64.8,139c0-1.27,0.06-2.53,0.49-3.85c0.89-2.8,1.8-5.65,2.94-8.45
				c1.01-2.43,2.01-4.86,3.07-7.23c0.36-0.95,1.05-1.69,2.24-1.95c0.38-0.11,0.64,0.11,0.53,0.37c-0.12,0.32-0.18,0.63-0.34,0.84
				c-1.22,1.32-1.63,2.85-2.21,4.33c-1.22,2.9-2.37,5.81-3.42,8.76c-0.63,1.74-1.28,3.54-1.26,5.33c0.02,0.21-0.03,0.47,0.19,0.58
				c0.11,0.05,0.35,0.05,0.36,0c0.17-0.26,0.34-0.53,0.39-0.79c0.5-2.32,1.35-4.54,2.15-6.86c1.33-3.8,2.78-7.6,4.81-11.3
				c0.17-0.26,0.28-0.53,0.51-0.79c0.17-0.26,0.35-0.58,0.75-0.48c0.29,0.05,0.24,0.32,0.26,0.53c0.01,0.26,0.23,0.37,0.51,0.16
				c0.45-0.48,0.87-0.48,1.37-0.21c0.44,0.21,0.87,0.48,1.23,0.84c0.61,0.58,0.78,1.27,0.44,2.11c-0.56,1.37-1.07,2.75-1.57,4.12
				c-1.21,3.17-2.35,6.34-3.49,9.45c-0.41,1.21-0.63,2.38-0.73,3.54c-0.04,0.21-0.03,0.47,0.26,0.53c0.22,0.11,0.48,0,0.69-0.16
				c0.56-0.42,1.12-0.79,1.62-1.21c1.02-0.95,2.12-1.95,3.1-2.96c2.86-2.96,5.39-6.12,7.86-9.29c0.65-0.9,1.06-1.8,1.49-2.75
				c0.1-0.21,0.35-0.58,0.45-0.47c0.8,0.53,1.67-0.53,2.57-0.16c1.06,0.48,1.52,0.9,1.19,2.01c-0.24,0.95-0.54,1.9-0.96,2.85
				c-0.93,2.01-1.5,4.07-2.13,6.12c-0.34,1.16-0.43,2.27-0.33,3.33c0.05,1,0.44,1.16,1.45,0.63c1.6-0.79,2.95-1.85,4.09-3.12
				c1.67-1.8,3.28-3.59,4.89-5.39l0.92-1c0.22-0.21,0.5-0.42,0.84-0.32c0.29,0.05,0.34,0.42,0.08,0.84
				c-0.09,0.16-0.24,0.32-0.33,0.48c-2.03,2.75-4.27,5.33-6.9,7.71c-0.96,0.9-2.06,1.64-3.26,2.22c-1.07,0.53-2.04,0.58-3.02,0.32
				c-2.22-0.69-3.15-1.85-2.91-4.07c0.19-1.32,0.57-2.69,0.82-4.01c0.07-0.37,0.33-0.79,0.09-1.11c-0.47-0.05-0.54,0.32-0.77,0.53
				c-1.62,1.85-3.18,3.7-4.78,5.49c-2.16,2.48-4.66,4.8-7.4,6.86c-0.92,0.74-1.88,1-2.94,0.84
				C69.06,142.59,67.55,142.01,66.18,141.27z M75.71,120.05c0.01-0.05-0.09-0.16-0.17-0.37c-0.21,0.16-0.28,0.21-0.29,0.26
				c-1.79,4.33-3.58,8.66-5.13,12.99c-0.35,0.9-0.59,1.85-0.34,2.75C71.5,130.45,73.46,125.22,75.71,120.05z M88.81,126.33
				c-0.5,0.74-0.82,1.48-1.04,2.27c-0.22,0.84-0.49,1.64-0.71,2.48c-0.38,1.06-0.35,1.21-0.23,2.16
				C87.86,130.66,88.85,127.39,88.81,126.33z"/>
			<path class="st0" d="M99.54,152.36c-1.33-0.32-2.2-1.11-2.53-2.22c-0.59-1.95-0.18-3.8,1.55-5.6c1.21-1.27,2.67-2.27,4.28-3.17
				c1.57-0.95,1.45-0.95,0.97-2.22c-0.47-1.32-1.07-2.64-1.59-4.01c-0.77-1.95-1.56-3.85-1.88-5.97c-0.29-1.64-0.03-3.33,0.41-5.02
				c0.34-1.16,1.13-2.11,2.3-2.9c3.3-2.11,7.64-2.75,11.06-0.74c1.3,0.79,1.79,2.01,1.82,3.43c-0.06,1.9-0.54,3.8-1.85,5.6
				c-0.34,0.53-0.73,1-1.35,1.37c-0.34,0.21-0.67,0.37-1.07,0.21c-0.33-0.16-0.59-0.37-0.52-0.74c-0.02-0.21,0.03-0.48,0.07-0.69
				l0.5-1.69c0.44-1.06,0.43-2.27,0.48-3.48c0.09-0.79-0.07-1.53-0.36-2.22c-0.14-0.21-0.29-0.37-0.53-0.37
				c-0.35-0.05-0.63,0.16-0.8,0.42c-0.17,0.26-0.34,0.53-0.46,0.84c-1.06,2.69-1.14,5.33-0.47,7.87c0.47,1.64,1.13,3.27,1.73,4.86
				c0.24,0.63,0.59,0.69,1.33,0.32c3.21-1.64,6.15-3.48,8.97-5.6c1.69-1.27,3.43-2.48,5.18-3.75c0.35-0.26,0.7-0.53,1.25-0.53
				c0.12,0,0.24,0,0.35,0.05c0.15,0.16,0.12,0.32-0.03,0.48l-0.87,0.79c-4.24,3.59-8.74,6.92-13.82,9.56
				c-0.13,0.05-0.26,0.11-0.4,0.21c-0.88,0.48-0.97,0.63-0.68,1.37c0.26,0.84,0.51,1.74,0.83,2.59c1.08,2.9-0.71,8.18-5.76,10.61
				c-0.93,0.48-1.89,0.74-2.86,0.79C102.92,152.99,101.14,152.84,99.54,152.36z M97.69,147.82c0.2-0.42,0.06-0.95-0.03-0.79
				c-0.16,0.21-0.22,0.53-0.27,0.79c-0.01,0.05,0.04,0.11,0.06,0.32C97.61,147.93,97.62,147.87,97.69,147.82z M101.66,149.46
				c1.21-1.58,2.4-3.11,2.62-4.91l0.14-1.69c0.02-0.42-0.43-0.58-0.78-0.32c-1.37,0.84-2.58,1.85-3.43,3.12
				c-0.86,1.37-1,3.01,0.27,3.96C100.86,149.88,101.35,149.83,101.66,149.46z M103.11,125.38c0.4-0.84,0.86-1.69,1.27-2.53
				c0.02-0.11-0.01-0.26-0.12-0.32c-0.06,0-0.24,0-0.31,0.05c-0.81,0.48-1.35,1.06-1.47,2.01c-0.02,0.11-0.01,0.37,0,0.63
				c-0.03,0.16,0.06,0.32,0.3,0.32C102.91,125.48,103.04,125.43,103.11,125.38z M105.7,123.79l-0.07-0.26
				c-0.13,0.05-0.26,0.11-0.28,0.21c-0.08,0.11-0.05,0.26,0.07,0.26C105.48,124.01,105.63,123.85,105.7,123.79z M106.11,146.34
				c1.11-1.06,1.31-1.8,0.72-2.85c-0.04-0.11-0.15-0.16-0.26-0.21c-0.24,0-0.33,0.16-0.36,0.32c-0.24,0.95-0.47,1.85-0.53,2.8
				C105.87,146.34,106.04,146.39,106.11,146.34z M108.82,145.13c-0.04-0.1-0.07-0.26-0.17-0.37c-0.15-0.16-0.38,0.1-0.44,0.42
				c-0.03,0.16-0.07,0.37,0.17,0.37C108.63,145.5,108.72,145.34,108.82,145.13z M112.83,126.28c-0.26,0.74-0.65,1.53-0.59,2.48
				C112.98,127.39,112.98,127.39,112.83,126.28z"/>
			<path class="st0" d="M124.23,143.07c-1.69-0.95-2.45-2.32-2.02-4.28c0.41-1.85,1.18-3.64,1.95-5.49c1.3-3.01,2.77-5.97,4.41-8.92
				c0.83-1.53,1.73-3.06,2.68-4.59c0.54-0.95,1.4-1.64,2.63-1.79c0.43-0.05,0.68,0.21,0.55,0.58c-0.19,0.37-0.49,0.69-0.85,1
				c-0.5,0.42-0.94,0.84-1.3,1.43c-3.05,5.23-5.92,10.51-7.82,16.05c-0.06,0.32-0.18,0.63-0.25,1c-0.16,0.84,0.07,1.53,0.4,1.37
				c0.6-0.32,0.58-0.85,0.74-1.37c0.94-3.01,2.39-5.91,3.79-8.82c1.08-2.17,2.21-4.33,3.46-6.44c0.72-1.27,1.62-2.48,2.45-3.7
				c0.24-0.32,0.48-0.63,0.82-0.84c0.12,0,0.24,0,0.35,0.05c0.06,0,0.11,0.05,0.1,0.11c-0.02,0.42-0.27,0.79-0.51,1.11
				c-3.06,4.65-5.59,9.4-7.67,14.31c-0.5,1.06-0.85,2.22-1.18,3.33c-0.09,0.16-0.08,0.42-0.06,0.63l5.1-10.61
				c1.25-2.43,2.71-4.75,4.19-7.13c1.04-1.69,1.43-1.8,2.86-0.48c0.82,0.74,0.96,1.64,0.32,2.75c-0.81,1.43-1.63,2.85-2.38,4.28
				c-1.71,3.27-3.48,6.55-4.72,9.93c-0.59,1.53-0.96,3.12-1.44,4.7c-0.07,0.37,0.25,0.58,0.7,0.42c0.57-0.16,1.11-0.42,1.64-0.69
				c1.73-0.84,3.25-1.85,4.57-3.12c2.44-2.38,4.83-4.75,7.2-7.08c0.59-0.58,1.11-1.11,1.7-1.64c0.22-0.21,0.5-0.42,0.77-0.58
				c0.35-0.26,0.72-0.32,1.06-0.16c0.28,0.11,0.21,0.48-0.17,0.9c-1.43,1.48-2.87,3.01-4.28,4.44c-1.56,1.53-3.11,3.01-4.65,4.44
				c-1.83,1.69-3.86,3.17-5.99,4.54c-0.28,0.21-0.55,0.37-0.89,0.53c-2.37,1.37-4.71,1.64-6.92,0.53
				C125.17,143.54,124.66,143.33,124.23,143.07z M139.7,114.77c-0.91-0.32-1.57-0.95-2.04-1.64c-0.33-0.48-0.35-1-0.06-1.58
				c0.55-1,1.36-1.43,2.38-1.11c1.09,0.32,1.95,0.84,2.52,1.64c0.38,0.53,0.32,1.16-0.15,1.74c-0.48,0.63-1.11,1.06-2.09,1.16
				C140.15,114.92,139.86,114.87,139.7,114.77z"/>
			<path class="st0" d="M174.15,127.7c-0.18,0.32-0.49,0.69-0.79,1c-4.55,4.91-9.21,9.72-14.66,13.94
				c-1.42,1.11-2.89,2.22-4.37,3.33c-0.43,0.37-0.93,0.47-1.49,0.53c-0.68,0.11-1.27,0-1.92-0.05c-1.58-0.26-2.97-0.9-4.35-1.53
				c-1.17-0.53-1.7-1.53-2.09-2.64c-0.61-1.85-0.4-3.91,0.16-5.91c0.54-1.58,0.92-3.22,1.58-4.81c0.69-1.74,1.55-3.38,2.47-5.07
				c1.39-2.53,3.38-4.75,6.02-6.6c1.26-0.9,2.63-1.48,4.17-1.64c2.27-0.21,4.34,0,6.14,1c1.15,0.63,1.69,1.58,1.74,2.9
				c0.12,2.85-1.28,5.44-3.2,7.92c-0.16,0.21-0.37,0.37-0.58,0.53c-0.28,0.21-0.6,0.32-0.94,0.16c-0.27-0.16-0.59-0.37-0.45-0.79
				c0.2-0.42,0.4-0.84,0.66-1.27c0.63-1.43,1.27-2.85,1.49-4.33c0.04-0.53,0.07-1-0.08-1.48c-0.08-0.21-0.37-0.26-0.64-0.11
				c-1.87,1.27-3.59,2.69-4.83,4.44c-2.32,3.33-3.83,6.81-4.58,10.45c-0.1,0.84-0.26,1.69-0.29,2.48c-0.01,1,0.1,2.01,0.86,2.75
				c0.3,0.32,0.64,0.42,1.18,0.16c1.34-0.69,2.51-1.48,3.65-2.38c3.94-2.96,7.41-6.28,10.51-9.87c0.93-1.06,1.9-2.06,2.93-3.01
				c0.36-0.32,0.67-0.69,1.22-0.69c0.18,0,0.42,0,0.46,0.11C174.22,127.33,174.24,127.54,174.15,127.7z M153.84,123.79
				c0.24-0.32,0.43-0.69,0.68-1.06c0.09-0.16,0.17-0.26,0.31-0.37l-0.51,0.16c-1.98,1.21-3.2,2.85-4.25,4.59
				c-1.87,3.17-2.99,6.49-3.75,9.87c-0.11,0.58-0.11,1.21-0.1,1.79c-0.04,0.21-0.02,0.42,0.33,0.48c0.01-0.05,0.13-0.05,0.14-0.11
				c0.3-0.95,0.6-1.9,0.84-2.85C148.73,131.93,150.85,127.75,153.84,123.79z M154.69,125.01c-1.15,0.63-1.76,1.64-2.36,2.59
				c-1.32,2.16-2.23,4.43-2.84,6.71c-0.06,0.32-0.31,0.69,0,0.95c0.07-0.05,0.14-0.11,0.15-0.16c1.13-3.06,2.53-6.02,4.46-8.87
				C154.42,125.8,154.74,125.43,154.69,125.01z M163.13,127.91h0.12c0.01-0.05,0.09-0.16,0.03-0.16
				C163.17,127.7,163.1,127.75,163.13,127.91z M163.78,126.38c0,0,0.12,0,0.18,0l0.06-0.32c0,0-0.12,0-0.18,0L163.78,126.38z"/>
		</g>
	</g>
	<rect x="38.19" y="54.31" class="st0" width="17.72" height="1.82"/>
	<rect x="38.19" y="58.7" class="st0" width="17.72" height="1.82"/>
	<rect x="149.26" y="54.31" class="st0" width="17.72" height="1.82"/>
	<rect x="149.26" y="58.7" class="st0" width="17.72" height="1.82"/>
</g>
</svg>
